<svg width="18" height="18" viewBox="0 0 18 18" fill="none" xmlns="http://www.w3.org/2000/svg">
<path d="M8.24228 12.3945L7.88873 12.0409L8.24228 12.3945ZM9.6565 4.05061C9.85176 3.85535 9.85176 3.53877 9.6565 3.3435C9.46123 3.14824 9.14465 3.14824 8.94939 3.3435L9.6565 4.05061ZM13.5456 7.09117L13.8991 7.44472L13.5456 7.09117ZM10.9293 7.86899C11.1246 7.67372 11.1246 7.35714 10.9293 7.16188C10.734 6.96662 10.4174 6.96662 10.2222 7.16188L10.9293 7.86899ZM7.88873 12.0409C7.02333 12.9063 5.64286 12.9063 4.77746 12.0409L4.07035 12.748C5.32628 14.0039 7.33991 14.0039 8.59584 12.748L7.88873 12.0409ZM4.77746 12.0409C3.91206 11.1755 3.91206 9.79504 4.77746 8.92965L4.07035 8.22254C2.81443 9.47846 2.81443 11.4921 4.07035 12.748L4.77746 12.0409ZM4.77746 8.92965L9.6565 4.05061L8.94939 3.3435L4.07035 8.22254L4.77746 8.92965ZM8.24228 12.3945C8.59584 12.748 8.59585 12.748 8.59588 12.748C8.59591 12.748 8.59595 12.7479 8.596 12.7479C8.59605 12.7478 8.59612 12.7477 8.5962 12.7477C8.59629 12.7476 8.59638 12.7475 8.59649 12.7474C8.5966 12.7473 8.59672 12.7471 8.59685 12.747C8.59699 12.7469 8.59714 12.7467 8.5973 12.7466C8.59746 12.7464 8.59764 12.7462 8.59783 12.746C8.59802 12.7458 8.59822 12.7456 8.59843 12.7454C8.60129 12.7426 8.6016 12.7423 8.60614 12.7377C8.61069 12.7332 8.61265 12.7312 8.61884 12.725C8.62624 12.7176 8.61921 12.7246 8.62702 12.7168C8.62775 12.7161 8.62849 12.7154 8.62925 12.7146C8.63001 12.7139 8.63078 12.7131 8.63156 12.7123C8.63234 12.7115 8.63314 12.7107 8.63394 12.7099C8.63475 12.7091 8.63557 12.7083 8.6364 12.7075C8.63723 12.7066 8.63807 12.7058 8.63893 12.7049C8.63978 12.7041 8.64065 12.7032 8.64153 12.7023C8.64241 12.7014 8.64331 12.7006 8.64421 12.6996C8.64512 12.6987 8.64603 12.6978 8.64696 12.6969C8.64789 12.696 8.64883 12.695 8.64979 12.6941C8.65074 12.6931 8.65171 12.6922 8.65269 12.6912C8.65366 12.6902 8.65465 12.6892 8.65566 12.6882C8.65666 12.6872 8.65767 12.6862 8.6587 12.6852C8.65972 12.6841 8.66076 12.6831 8.66181 12.682C8.66286 12.681 8.66392 12.6799 8.665 12.6789C8.66607 12.6778 8.66716 12.6767 8.66826 12.6756C8.66935 12.6745 8.67046 12.6734 8.67159 12.6723C8.67271 12.6712 8.67384 12.67 8.67499 12.6689C8.67613 12.6677 8.67729 12.6666 8.67846 12.6654C8.67963 12.6642 8.68081 12.6631 8.682 12.6619C8.68319 12.6607 8.6844 12.6595 8.68561 12.6582C8.68683 12.657 8.68805 12.6558 8.68929 12.6546C8.69053 12.6533 8.69178 12.6521 8.69305 12.6508C8.69431 12.6496 8.69558 12.6483 8.69687 12.647C8.69815 12.6457 8.69945 12.6444 8.70076 12.6431C8.70786 12.636 8.70955 12.6343 8.71702 12.6268C8.72822 12.6156 8.74015 12.6037 8.75279 12.5911C8.78428 12.5596 8.79996 12.5439 8.83694 12.5069C8.84381 12.5001 8.92505 12.4188 8.93708 12.4068C8.93816 12.4057 8.99052 12.3533 8.99282 12.351C9.01806 12.3258 9.02577 12.3181 9.0522 12.2917C9.09296 12.2509 9.13605 12.2078 9.18131 12.1625C9.24935 12.0945 9.25124 12.0926 9.32344 12.0204C9.32434 12.0195 9.39718 11.9467 9.39906 11.9448C9.42476 11.9191 9.45094 11.8929 9.47757 11.8663C9.4809 11.863 9.48424 11.8596 9.48758 11.8563C9.49092 11.8529 9.49427 11.8496 9.49763 11.8462C9.50661 11.8373 9.50883 11.835 9.51786 11.826C9.52689 11.817 9.52918 11.8147 9.53826 11.8056C9.55647 11.7874 9.54057 11.8033 9.55883 11.785C9.56227 11.7816 9.56572 11.7781 9.56918 11.7747C9.57263 11.7712 9.57609 11.7678 9.57956 11.7643C9.59806 11.7458 9.5819 11.762 9.60046 11.7434C9.6381 11.7058 9.60487 11.739 9.64272 11.7011C9.6995 11.6444 9.75795 11.5859 9.8179 11.526C10.0399 11.3039 10.3394 11.0044 10.5991 10.7448C11.7087 9.63513 13.0346 8.3093 13.8991 7.44472L13.192 6.73762C12.3275 7.60219 11.0016 8.92802 9.89195 10.0377C9.63233 10.2973 9.33282 10.5968 9.1108 10.8188C9.05084 10.8788 8.99239 10.9373 8.93562 10.994C8.89777 11.0319 8.93099 10.9987 8.89335 11.0363C8.8748 11.0549 8.89096 11.0387 8.87246 11.0572C8.86899 11.0607 8.86553 11.0641 8.86207 11.0676C8.85861 11.071 8.85517 11.0745 8.85172 11.0779C8.82419 11.1055 8.7971 11.1325 8.77046 11.1592C8.74383 11.1858 8.71765 11.212 8.69196 11.2377C8.69007 11.2396 8.61724 11.3124 8.61633 11.3133C8.54413 11.3855 8.54224 11.3874 8.47421 11.4554C8.42895 11.5007 8.38585 11.5438 8.34509 11.5846C8.3349 11.5947 8.32485 11.6048 8.31496 11.6147C8.30836 11.6213 8.30675 11.6229 8.30023 11.6294C8.28723 11.6424 8.29864 11.631 8.28572 11.6439C8.26063 11.669 8.28216 11.6475 8.25738 11.6723C8.23312 11.6965 8.25392 11.6757 8.22997 11.6997C8.18601 11.7436 8.22065 11.709 8.17797 11.7517C8.1375 11.7921 8.16899 11.7607 8.12984 11.7998C8.09286 11.8368 8.07717 11.8525 8.04568 11.884C7.99941 11.9302 8.01895 11.9107 7.9785 11.9511C7.97729 11.9524 7.97608 11.9536 7.97489 11.9548C7.9737 11.9559 7.97252 11.9571 7.97135 11.9583C7.97018 11.9595 7.96902 11.9606 7.96788 11.9618C7.96673 11.9629 7.9656 11.964 7.96448 11.9652C7.96336 11.9663 7.96225 11.9674 7.96115 11.9685C7.96005 11.9696 7.95897 11.9707 7.95789 11.9718C7.95682 11.9728 7.95576 11.9739 7.95471 11.9749C7.95365 11.976 7.95262 11.977 7.95159 11.9781C7.9297 11.9999 7.94962 11.98 7.92929 12.0004C7.92846 12.0012 7.92764 12.002 7.92683 12.0028C7.92603 12.0036 7.92523 12.0044 7.92445 12.0052C7.92367 12.006 7.9229 12.0067 7.92214 12.0075C7.92139 12.0083 7.92064 12.009 7.91991 12.0097C7.91211 12.0175 7.91914 12.0105 7.91173 12.0179C7.90555 12.0241 7.90358 12.0261 7.89904 12.0306C7.89449 12.0352 7.89419 12.0355 7.89133 12.0383C7.89111 12.0385 7.89091 12.0387 7.89072 12.0389C7.89053 12.0391 7.89036 12.0393 7.89019 12.0395C7.89003 12.0396 7.88988 12.0398 7.88975 12.0399C7.88961 12.04 7.88949 12.0402 7.88938 12.0403C7.88927 12.0404 7.88918 12.0405 7.8891 12.0405C7.88902 12.0406 7.88895 12.0407 7.88889 12.0408C7.88884 12.0408 7.8888 12.0408 7.88877 12.0409C7.88874 12.0409 7.88873 12.0409 8.24228 12.3945ZM13.8991 7.44472C14.7987 6.54518 14.7987 5.09157 13.8991 4.19203L13.192 4.89914C13.701 5.40815 13.701 6.2286 13.192 6.73762L13.8991 7.44472ZM13.8991 4.19203C12.9996 3.29249 11.546 3.29249 10.6464 4.19203L11.3536 4.89914C11.8626 4.39012 12.683 4.39012 13.192 4.89914L13.8991 4.19203ZM10.6464 4.19203C10.6435 4.19493 10.6406 4.19784 10.6377 4.20075C10.6348 4.20367 10.6319 4.20659 10.629 4.20952C10.626 4.21245 10.6231 4.21539 10.6201 4.21833C10.6172 4.22127 10.6143 4.22422 10.6113 4.22718C10.6083 4.23014 10.6054 4.2331 10.6024 4.23608C10.5994 4.23905 10.5965 4.24203 10.5935 4.24501C10.5905 4.248 10.5875 4.25099 10.5845 4.25399C10.5815 4.25699 10.5785 4.26 10.5755 4.26301C10.5724 4.26603 10.5694 4.26905 10.5664 4.27208C10.5634 4.27511 10.5603 4.27814 10.5573 4.28118C10.5543 4.28423 10.5512 4.28727 10.5481 4.29033C10.5451 4.29339 10.542 4.29645 10.539 4.29952C10.5359 4.30259 10.5328 4.30566 10.5297 4.30875C10.5266 4.31183 10.5236 4.31492 10.5205 4.31802C10.5174 4.32111 10.5143 4.32421 10.5112 4.32732C10.508 4.33043 10.5049 4.33355 10.5018 4.33667C10.4987 4.3398 10.4956 4.34293 10.4924 4.34606C10.4893 4.3492 10.4861 4.35234 10.483 4.35549C10.4798 4.35864 10.4767 4.3618 10.4735 4.36496C10.4704 4.36812 10.4672 4.37129 10.464 4.37447C10.4608 4.37764 10.4577 4.38083 10.4545 4.38402C10.4513 4.3872 10.4481 4.3904 10.4449 4.3936C10.4417 4.3968 10.4385 4.40001 10.4353 4.40323C10.432 4.40644 10.4288 4.40966 10.4256 4.41289C10.4224 4.41611 10.4191 4.41935 10.4159 4.42259C10.4127 4.42583 10.4094 4.42907 10.4062 4.43233C10.4029 4.43558 10.3996 4.43884 10.3964 4.4421C10.3931 4.44537 10.3898 4.44864 10.3866 4.45191C10.3833 4.45519 10.38 4.45847 10.3767 4.46176C10.3734 4.46505 10.3701 4.46835 10.3668 4.47165C10.3635 4.47495 10.3602 4.47826 10.3569 4.48157C10.3536 4.48489 10.3503 4.48821 10.3469 4.49153C10.3436 4.49486 10.3403 4.49819 10.3369 4.50153C10.3336 4.50487 10.3303 4.50821 10.3269 4.51156C10.3236 4.51491 10.3202 4.51827 10.3169 4.52163C10.3135 4.52499 10.3101 4.52836 10.3067 4.53173C10.3034 4.5351 10.3 4.53848 10.2966 4.54187C10.2932 4.54525 10.2898 4.54864 10.2864 4.55204C10.283 4.55544 10.2796 4.55884 10.2762 4.56225C10.2728 4.56566 10.2694 4.56907 10.266 4.57249C10.2626 4.57591 10.2591 4.57933 10.2557 4.58277C10.2523 4.5862 10.2488 4.58963 10.2454 4.59308C10.242 4.59652 10.2385 4.59997 10.2351 4.60342C10.2316 4.60687 10.2281 4.61033 10.2247 4.6138C10.2212 4.61726 10.2177 4.62073 10.2143 4.62421C10.2108 4.62768 10.2073 4.63116 10.2038 4.63465C10.2003 4.63814 10.1968 4.64163 10.1934 4.64513C10.1899 4.64862 10.1863 4.65213 10.1828 4.65564C10.1793 4.65914 10.1758 4.66266 10.1723 4.66618C10.1688 4.6697 10.1653 4.67322 10.1617 4.67675C10.1582 4.68028 10.1547 4.68382 10.1511 4.68736C10.1476 4.6909 10.144 4.69444 10.1405 4.69799C10.1369 4.70154 10.1334 4.7051 10.1298 4.70866C10.1263 4.71222 10.1227 4.71579 10.1191 4.71936C10.1155 4.72293 10.112 4.72651 10.1084 4.73009C10.1048 4.73367 10.1012 4.73726 10.0976 4.74085C10.094 4.74444 10.0904 4.74804 10.0868 4.75164C10.0832 4.75524 10.0796 4.75885 10.076 4.76246C10.0724 4.76608 10.0688 4.76969 10.0652 4.77332C10.0615 4.77694 10.0579 4.78056 10.0543 4.7842C10.0506 4.78783 10.047 4.79147 10.0434 4.79511C10.0397 4.79875 10.0361 4.8024 10.0324 4.80605C10.0288 4.8097 10.0251 4.81335 10.0215 4.81702C10.0178 4.82068 10.0141 4.82434 10.0105 4.82801C10.0068 4.83168 10.0031 4.83536 9.99944 4.83904C9.99576 4.84272 9.99207 4.8464 9.98838 4.85009C9.98469 4.85378 9.981 4.85748 9.9773 4.86118C9.9736 4.86487 9.9699 4.86858 9.96619 4.87229C9.96248 4.87599 9.95877 4.87971 9.95505 4.88342C9.95134 4.88714 9.94762 4.89086 9.94389 4.89459C9.94016 4.89832 9.93643 4.90205 9.9327 4.90578C9.92896 4.90952 9.92522 4.91326 9.92148 4.917C9.91773 4.92074 9.91398 4.92449 9.91023 4.92825C9.90648 4.932 9.90272 4.93576 9.89896 4.93952C9.8952 4.94328 9.89143 4.94705 9.88766 4.95082C9.88389 4.95459 9.88012 4.95836 9.87634 4.96214C9.87256 4.96592 9.86877 4.9697 9.86499 4.97349C9.8612 4.97728 9.85741 4.98107 9.85361 4.98487C9.84982 4.98866 9.84602 4.99246 9.84221 4.99627C9.83841 5.00007 9.8346 5.00388 9.83079 5.00769C9.82697 5.0115 9.82316 5.01532 9.81934 5.01914C9.81551 5.02296 9.81169 5.02679 9.80786 5.03062C9.80403 5.03445 9.8002 5.03828 9.79636 5.04212C9.79252 5.04595 9.78868 5.04979 9.78484 5.05364C9.78099 5.05748 9.77714 5.06133 9.77329 5.06519C9.76944 5.06904 9.76558 5.0729 9.76172 5.07676C9.75786 5.08062 9.754 5.08448 9.75013 5.08835C9.74626 5.09222 9.74239 5.09609 9.73851 5.09997C9.73464 5.10384 9.73076 5.10772 9.72687 5.11161C9.72299 5.11549 9.7191 5.11938 9.71521 5.12327C9.71132 5.12716 9.70742 5.13105 9.70352 5.13495C9.69963 5.13885 9.69572 5.14275 9.69182 5.14666C9.68791 5.15057 9.684 5.15447 9.68009 5.15839C9.67618 5.1623 9.67226 5.16622 9.66834 5.17014C9.66442 5.17406 9.6605 5.17798 9.65657 5.18191C9.65264 5.18584 9.64871 5.18977 9.64478 5.1937C9.64084 5.19764 9.6369 5.20157 9.63296 5.20552C9.62902 5.20946 9.62508 5.2134 9.62113 5.21735C9.61718 5.2213 9.61323 5.22525 9.60927 5.22921C9.60532 5.23316 9.60136 5.23712 9.5974 5.24108C9.59344 5.24504 9.58947 5.24901 9.5855 5.25298C9.58153 5.25694 9.57756 5.26092 9.57359 5.26489C9.56961 5.26887 9.56563 5.27284 9.56165 5.27682C9.55767 5.28081 9.55369 5.28479 9.5497 5.28878C9.54571 5.29277 9.54172 5.29676 9.53773 5.30075C9.53373 5.30475 9.52974 5.30874 9.52574 5.31274C9.52173 5.31674 9.51773 5.32075 9.51373 5.32475C9.50972 5.32876 9.50571 5.33277 9.5017 5.33678C9.49768 5.34079 9.49367 5.34481 9.48965 5.34883C9.48563 5.35285 9.48161 5.35687 9.47759 5.36089C9.47356 5.36492 9.46953 5.36894 9.4655 5.37297C9.46147 5.377 9.45744 5.38104 9.4534 5.38507C9.44937 5.38911 9.44533 5.39315 9.44129 5.39719C9.43725 5.40123 9.4332 5.40528 9.42915 5.40932C9.42511 5.41337 9.42106 5.41742 9.417 5.42147C9.41295 5.42553 9.4089 5.42958 9.40484 5.43364C9.40078 5.4377 9.39672 5.44176 9.39266 5.44582C9.38859 5.44989 9.38453 5.45395 9.38046 5.45802C9.37639 5.46209 9.37232 5.46616 9.36824 5.47024C9.36417 5.47431 9.36009 5.47839 9.35601 5.48247C9.35193 5.48654 9.34785 5.49063 9.34377 5.49471C9.33968 5.49879 9.3356 5.50288 9.33151 5.50697C9.32742 5.51106 9.32333 5.51515 9.31923 5.51925C9.31514 5.52334 9.31104 5.52744 9.30694 5.53153C9.30284 5.53563 9.29874 5.53973 9.29464 5.54384C9.29054 5.54794 9.28643 5.55205 9.28232 5.55616C9.27821 5.56026 9.2741 5.56438 9.26999 5.56849C9.26588 5.5726 9.26176 5.57672 9.25764 5.58083C9.25353 5.58495 9.24941 5.58907 9.24529 5.59319C9.24116 5.59731 9.23704 5.60144 9.23291 5.60556C9.22879 5.60969 9.22466 5.61382 9.22053 5.61795C9.2164 5.62208 9.21227 5.62621 9.20813 5.63034C9.204 5.63448 9.19986 5.63862 9.19572 5.64275C9.19158 5.64689 9.18744 5.65103 9.1833 5.65518C9.17916 5.65932 9.17501 5.66346 9.17087 5.66761C9.16672 5.67176 9.16257 5.67591 9.15842 5.68006C9.15427 5.68421 9.15012 5.68836 9.14597 5.69251C9.14181 5.69667 9.13766 5.70082 9.1335 5.70498C9.12934 5.70914 9.12518 5.7133 9.12102 5.71746C9.11686 5.72162 9.11269 5.72578 9.10853 5.72995C9.10436 5.73411 9.1002 5.73828 9.09603 5.74245C9.09186 5.74662 9.08769 5.75079 9.08352 5.75496C9.07935 5.75913 9.07517 5.76331 9.071 5.76748C9.06682 5.77166 9.06264 5.77583 9.05847 5.78001C9.05429 5.78419 9.05011 5.78837 9.04593 5.79255C9.04175 5.79673 9.03756 5.80092 9.03338 5.8051C9.02919 5.80928 9.02501 5.81347 9.02082 5.81766C9.01663 5.82185 9.01244 5.82604 9.00825 5.83023C9.00406 5.83442 8.99987 5.83861 8.99568 5.8428C8.99148 5.84699 8.98729 5.85119 8.98309 5.85539C8.9789 5.85958 8.9747 5.86378 8.9705 5.86798C8.9663 5.87218 8.9621 5.87638 8.9579 5.88058C8.9537 5.88478 8.9495 5.88898 8.94529 5.89319C8.94109 5.89739 8.93688 5.9016 8.93268 5.9058C8.92847 5.91001 8.92426 5.91422 8.92005 5.91842C8.91584 5.92263 8.91164 5.92684 8.90742 5.93105C8.90321 5.93526 8.899 5.93948 8.89479 5.94369C8.89057 5.9479 8.88636 5.95212 8.88215 5.95633C8.87793 5.96055 8.87371 5.96476 8.8695 5.96898C8.86528 5.9732 8.86106 5.97742 8.85684 5.98164C8.85262 5.98586 8.8484 5.99008 8.84418 5.9943C8.83996 5.99852 8.83574 6.00274 8.83151 6.00696C8.82729 6.01119 8.82307 6.01541 8.81884 6.01963C8.81462 6.02386 8.81039 6.02808 8.80617 6.03231C8.80194 6.03654 8.79771 6.04076 8.79349 6.04499C8.78926 6.04922 8.78503 6.05345 8.7808 6.05768C8.77657 6.06191 8.77234 6.06614 8.76811 6.07037C8.76388 6.0746 8.75965 6.07883 8.75541 6.08306C8.75118 6.0873 8.74695 6.09153 8.74272 6.09576C8.73848 6.09999 8.73425 6.10423 8.73001 6.10846C8.72578 6.1127 8.72155 6.11693 8.71731 6.12117C8.71307 6.1254 8.70884 6.12964 8.7046 6.13388C8.70036 6.13811 8.69613 6.14235 8.69189 6.14659C8.68765 6.15083 8.68341 6.15506 8.67918 6.1593C8.67494 6.16354 8.6707 6.16778 8.66646 6.17202C8.66222 6.17626 8.65798 6.1805 8.65374 6.18474C8.6495 6.18898 8.64526 6.19322 8.64102 6.19746C8.63678 6.2017 8.63254 6.20594 8.6283 6.21018C8.62406 6.21442 8.61982 6.21866 8.61557 6.2229C8.61133 6.22715 8.60709 6.23139 8.60285 6.23563C8.59861 6.23987 8.59436 6.24411 8.59012 6.24836C8.58588 6.2526 8.58164 6.25684 8.5774 6.26108C8.57315 6.26532 8.56891 6.26957 8.56467 6.27381C8.56043 6.27805 8.55618 6.2823 8.55194 6.28654C8.5477 6.29078 8.54345 6.29502 8.53921 6.29927C8.53497 6.30351 8.53073 6.30775 8.52648 6.31199C8.52224 6.31624 8.518 6.32048 8.51376 6.32472C8.50951 6.32896 8.50527 6.33321 8.50103 6.33745C8.49679 6.34169 8.49255 6.34593 8.4883 6.35017C8.48406 6.35442 8.47982 6.35866 8.47558 6.3629C8.47134 6.36714 8.4671 6.37138 8.46286 6.37562C8.45862 6.37986 8.45437 6.3841 8.45013 6.38834C8.44589 6.39258 8.44165 6.39682 8.43741 6.40106C8.43317 6.4053 8.42894 6.40954 8.4247 6.41378C8.42046 6.41802 8.41622 6.42226 8.41198 6.4265C8.40774 6.43074 8.4035 6.43497 8.39927 6.43921C8.39503 6.44345 8.39079 6.44768 8.38656 6.45192C8.38232 6.45616 8.37809 6.46039 8.37385 6.46463C8.36961 6.46886 8.36538 6.4731 8.36115 6.47733C8.35691 6.48157 8.35268 6.4858 8.34845 6.49003C8.34421 6.49427 8.33998 6.4985 8.33575 6.50273C8.33152 6.50696 8.32729 6.51119 8.32306 6.51542C8.31883 6.51965 8.3146 6.52388 8.31037 6.52811C8.30614 6.53234 8.30191 6.53657 8.29768 6.5408C8.29346 6.54502 8.28923 6.54925 8.285 6.55347C8.28078 6.5577 8.27655 6.56193 8.27233 6.56615C8.2681 6.57037 8.26388 6.5746 8.25966 6.57882C8.25544 6.58304 8.25121 6.58726 8.24699 6.59148C8.24277 6.5957 8.23855 6.59992 8.23434 6.60414C8.23012 6.60836 8.2259 6.61258 8.22168 6.61679C8.21747 6.62101 8.21325 6.62523 8.20904 6.62944C8.20482 6.63366 8.20061 6.63787 8.1964 6.64208C8.19218 6.64629 8.18797 6.65051 8.18376 6.65472C8.17955 6.65893 8.17534 6.66313 8.17114 6.66734C8.16693 6.67155 8.16272 6.67576 8.15852 6.67996C8.15431 6.68417 8.15011 6.68837 8.1459 6.69258C8.1417 6.69678 8.1375 6.70098 8.1333 6.70518C8.1291 6.70938 8.1249 6.71358 8.1207 6.71778C8.1165 6.72198 8.11231 6.72617 8.10811 6.73037C8.10392 6.73456 8.09972 6.73876 8.09553 6.74295C8.09134 6.74714 8.08715 6.75133 8.08296 6.75552C8.07877 6.75971 8.07458 6.7639 8.07039 6.76809C8.06621 6.77227 8.06202 6.77646 8.05784 6.78064C8.05365 6.78482 8.04947 6.78901 8.04529 6.79319C8.04111 6.79737 8.03693 6.80155 8.03275 6.80572C8.02858 6.8099 8.0244 6.81408 8.02023 6.81825C8.01605 6.82242 8.01188 6.8266 8.00771 6.83077C8.00354 6.83494 7.99937 6.83911 7.9952 6.84327C7.99104 6.84744 7.98687 6.85161 7.98271 6.85577C7.97854 6.85993 7.97438 6.8641 7.97022 6.86826C7.96606 6.87242 7.9619 6.87657 7.95775 6.88073C7.95359 6.88489 7.94944 6.88904 7.94528 6.8932C7.94113 6.89735 7.93698 6.9015 7.93283 6.90565C7.92868 6.9098 7.92453 6.91394 7.92039 6.91809C7.91624 6.92223 7.9121 6.92638 7.90796 6.93052C7.90382 6.93466 7.89968 6.9388 7.89554 6.94294C7.8914 6.94707 7.88727 6.95121 7.88314 6.95534C7.879 6.95947 7.87487 6.96361 7.87074 6.96773C7.86662 6.97186 7.86249 6.97599 7.85836 6.98011C7.85424 6.98424 7.85012 6.98836 7.846 6.99248C7.84188 6.9966 7.83776 7.00072 7.83364 7.00483C7.82953 7.00895 7.82541 7.01306 7.8213 7.01717C7.81719 7.02129 7.81308 7.0254 7.80898 7.0295C7.80487 7.03361 7.80077 7.03771 7.79666 7.04181C7.79256 7.04592 7.78846 7.05002 7.78436 7.05411C7.78027 7.05821 7.77617 7.06231 7.77208 7.0664C7.76799 7.07049 7.7639 7.07458 7.75981 7.07867C7.75572 7.08275 7.75164 7.08684 7.74756 7.09092C7.74347 7.095 7.73939 7.09908 7.73532 7.10316C7.73124 7.10724 7.72716 7.11131 7.72309 7.11539C7.71902 7.11946 7.71495 7.12353 7.71088 7.12759C7.70682 7.13166 7.70275 7.13573 7.69869 7.13979C7.69463 7.14385 7.69057 7.14791 7.68651 7.15196C7.68246 7.15602 7.6784 7.16007 7.67435 7.16412C7.6703 7.16818 7.66625 7.17222 7.66221 7.17627C7.65816 7.18031 7.65412 7.18436 7.65008 7.1884C7.64604 7.19244 7.64201 7.19647 7.63797 7.20051C7.63394 7.20454 7.62991 7.20857 7.62588 7.2126C7.62185 7.21663 7.61782 7.22065 7.6138 7.22468C7.60978 7.2287 7.60576 7.23272 7.60174 7.23673C7.59773 7.24075 7.59371 7.24476 7.5897 7.24877C7.58569 7.25278 7.58169 7.25679 7.57768 7.2608C7.57368 7.2648 7.56968 7.2688 7.56568 7.2728C7.56168 7.2768 7.55769 7.28079 7.55369 7.28478C7.5497 7.28877 7.54571 7.29276 7.54173 7.29675C7.53774 7.30073 7.53376 7.30472 7.52978 7.3087C7.5258 7.31267 7.52183 7.31665 7.51785 7.32062C7.51388 7.3246 7.50991 7.32856 7.50595 7.33253C7.50198 7.3365 7.49802 7.34046 7.49406 7.34442C7.4901 7.34838 7.48614 7.35233 7.48219 7.35629C7.47824 7.36024 7.47429 7.36419 7.47034 7.36813C7.4664 7.37208 7.46246 7.37602 7.45852 7.37996C7.45458 7.3839 7.45064 7.38784 7.44671 7.39177C7.44278 7.3957 7.43885 7.39963 7.43493 7.40355C7.431 7.40748 7.42708 7.4114 7.42316 7.41532C7.41924 7.41923 7.41533 7.42315 7.41142 7.42706C7.40751 7.43097 7.4036 7.43488 7.3997 7.43878C7.3958 7.44268 7.3919 7.44658 7.388 7.45048C7.3841 7.45437 7.38021 7.45827 7.37632 7.46215C7.37243 7.46604 7.36855 7.46993 7.36467 7.47381C7.36079 7.47769 7.35691 7.48157 7.35304 7.48544C7.34916 7.48931 7.3453 7.49318 7.34143 7.49705C7.33756 7.50091 7.3337 7.50478 7.32984 7.50863C7.32599 7.51249 7.32213 7.51635 7.31828 7.5202C7.31443 7.52405 7.31059 7.52789 7.30674 7.53173C7.3029 7.53558 7.29906 7.53941 7.29523 7.54325C7.2914 7.54708 7.28757 7.55091 7.28374 7.55474C7.27991 7.55856 7.27609 7.56239 7.27227 7.5662C7.26846 7.57002 7.26464 7.57384 7.26083 7.57765C7.25702 7.58146 7.25322 7.58526 7.24942 7.58906C7.24561 7.59286 7.24182 7.59666 7.23802 7.60045C7.23423 7.60425 7.23044 7.60804 7.22666 7.61182C7.22287 7.6156 7.21909 7.61938 7.21532 7.62316C7.21154 7.62694 7.20777 7.63071 7.204 7.63448C7.20023 7.63824 7.19647 7.64201 7.19271 7.64576C7.18895 7.64952 7.1852 7.65328 7.18145 7.65703C7.1777 7.66078 7.17396 7.66452 7.17021 7.66826C7.16647 7.672 7.16274 7.67574 7.159 7.67947C7.15527 7.6832 7.15155 7.68693 7.14782 7.69066C7.1441 7.69438 7.14038 7.6981 7.13667 7.70181C7.13295 7.70552 7.12924 7.70923 7.12554 7.71294C7.12183 7.71664 7.11813 7.72034 7.11444 7.72404C7.11074 7.72773 7.10705 7.73143 7.10337 7.73511C7.09968 7.7388 7.096 7.74248 7.09232 7.74616C7.08865 7.74983 7.08497 7.7535 7.08131 7.75717C7.07764 7.76084 7.07398 7.7645 7.07032 7.76816C7.06666 7.77182 7.06301 7.77547 7.05936 7.77912C7.05571 7.78276 7.05207 7.78641 7.04843 7.79005C7.04479 7.79368 7.04116 7.79732 7.03753 7.80095C7.0339 7.80457 7.03028 7.8082 7.02666 7.81182C7.02304 7.81544 7.01943 7.81905 7.01582 7.82266C7.01221 7.82627 7.00861 7.82987 7.00501 7.83347C7.00141 7.83707 6.99782 7.84066 6.99423 7.84425C6.99064 7.84784 6.98706 7.85142 6.98348 7.855C6.9799 7.85858 6.97633 7.86215 6.97276 7.86572C6.96919 7.86928 6.96563 7.87285 6.96207 7.87641C6.95852 7.87996 6.95496 7.88352 6.95142 7.88706C6.94787 7.89061 6.94433 7.89415 6.94079 7.89769C6.93725 7.90122 6.93372 7.90476 6.9302 7.90828C6.92667 7.91181 6.92315 7.91533 6.91963 7.91884C6.91612 7.92236 6.91261 7.92587 6.90911 7.92937C6.9056 7.93288 6.9021 7.93638 6.89861 7.93987C6.89511 7.94336 6.89163 7.94685 6.88814 7.95033C6.88466 7.95382 6.88118 7.95729 6.87771 7.96077C6.87424 7.96424 6.87077 7.9677 6.86731 7.97116C6.86385 7.97463 6.8604 7.97808 6.85695 7.98153C6.8535 7.98498 6.85005 7.98842 6.84662 7.99186C6.84318 7.9953 6.83975 7.99873 6.83632 8.00216C6.83289 8.00559 6.82947 8.00901 6.82605 8.01242C6.82264 8.01584 6.81923 8.01925 6.81583 8.02265C6.81242 8.02606 6.80902 8.02946 6.80563 8.03285C6.80224 8.03624 6.79885 8.03963 6.79547 8.04301C6.79209 8.04639 6.78871 8.04976 6.78534 8.05313C6.78198 8.0565 6.77861 8.05987 6.77525 8.06322C6.7719 8.06658 6.76855 8.06993 6.7652 8.07328C6.76186 8.07662 6.75852 8.07996 6.75518 8.0833C6.75185 8.08663 6.74852 8.08996 6.7452 8.09328C6.74188 8.0966 6.73856 8.09992 6.73525 8.10322C6.73194 8.10653 6.72864 8.10984 6.72534 8.11314C6.72205 8.11643 6.71875 8.11972 6.71547 8.12301C6.71218 8.12629 6.70891 8.12957 6.70563 8.13285C6.70236 8.13612 6.69909 8.13938 6.69583 8.14264C6.69257 8.1459 6.68932 8.14916 6.68607 8.15241C6.68282 8.15565 6.67958 8.1589 6.67635 8.16213C6.67311 8.16537 6.66988 8.16859 6.66666 8.17182C6.66344 8.17504 6.66022 8.17826 6.65701 8.18147C6.6538 8.18468 6.6506 8.18788 6.6474 8.19108C6.64421 8.19427 6.64101 8.19746 6.63783 8.20065C6.63465 8.20383 6.63147 8.20701 6.6283 8.21018C6.62513 8.21335 6.62196 8.21652 6.6188 8.21967C6.61565 8.22283 6.61249 8.22598 6.60935 8.22913C6.6062 8.23227 6.60307 8.23541 6.59993 8.23854C6.5968 8.24167 6.59368 8.2448 6.59056 8.24792C6.58744 8.25104 6.58433 8.25415 6.58122 8.25725C6.57812 8.26036 6.57502 8.26346 6.57193 8.26655C6.56884 8.26964 6.56575 8.27272 6.56268 8.2758C6.5596 8.27888 6.55653 8.28195 6.55346 8.28502C6.5504 8.28808 6.54734 8.29114 6.54429 8.29419C6.54124 8.29724 6.53819 8.30028 6.53516 8.30332C6.53212 8.30636 6.52909 8.30939 6.52607 8.31241C6.52304 8.31543 6.52003 8.31845 6.51702 8.32146C6.51401 8.32447 6.51101 8.32747 6.50801 8.33047C6.50502 8.33346 6.50203 8.33645 6.49905 8.33943C6.49607 8.34241 6.49309 8.34539 6.49012 8.34835C6.48716 8.35132 6.4842 8.35428 6.48125 8.35723C6.47829 8.36019 6.47535 8.36313 6.47241 8.36607C6.46947 8.36901 6.46654 8.37194 6.46361 8.37486C6.46069 8.37779 6.45777 8.3807 6.45486 8.38361C6.45195 8.38652 6.44905 8.38943 6.44616 8.39232C6.44326 8.39522 6.44037 8.3981 6.43749 8.40098C6.43461 8.40386 6.43174 8.40674 6.42888 8.4096C6.42601 8.41247 6.42315 8.41533 6.4203 8.41818C6.41745 8.42103 6.41461 8.42387 6.41177 8.42671C6.40893 8.42954 6.40611 8.43237 6.40328 8.43519C6.40046 8.43801 6.39765 8.44083 6.39484 8.44363C6.39204 8.44644 6.38924 8.44924 6.38645 8.45203C6.38366 8.45482 6.38087 8.4576 6.3781 8.46038C6.37532 8.46315 6.37256 8.46592 6.36979 8.46868C6.36703 8.47144 6.36428 8.4742 6.36154 8.47694C6.35879 8.47969 6.35605 8.48242 6.35332 8.48515C6.35059 8.48788 6.34787 8.49061 6.34516 8.49332C6.34244 8.49603 6.33974 8.49874 6.33704 8.50144C6.33434 8.50414 6.33165 8.50683 6.32897 8.50951C6.32628 8.51219 6.32361 8.51487 6.32094 8.51754C6.31827 8.5202 6.31562 8.52286 6.31296 8.52551C6.31031 8.52817 6.30767 8.53081 6.30503 8.53344C6.3024 8.53608 6.29977 8.53871 6.29715 8.54133C6.29453 8.54395 6.29192 8.54656 6.28932 8.54916C6.28671 8.55176 6.28412 8.55436 6.28153 8.55695C6.27894 8.55953 6.27636 8.56211 6.27379 8.56468C6.27122 8.56726 6.26866 8.56982 6.2661 8.57237C6.26355 8.57493 6.261 8.57747 6.25846 8.58001C6.25593 8.58255 6.2534 8.58508 6.25087 8.5876C6.24835 8.59013 6.24584 8.59264 6.24333 8.59515C6.24083 8.59765 6.23833 8.60015 6.23584 8.60264C6.23335 8.60513 6.23087 8.60761 6.2284 8.61008C6.22593 8.61255 6.22346 8.61501 6.22101 8.61747C6.21855 8.61992 6.21611 8.62237 6.21367 8.62481C6.21123 8.62725 6.2088 8.62968 6.20638 8.6321C6.20396 8.63452 6.20154 8.63693 6.19914 8.63934C6.19673 8.64174 6.19434 8.64414 6.19195 8.64653C6.18956 8.64892 6.18718 8.65129 6.18481 8.65366C6.18244 8.65604 6.18008 8.6584 6.17773 8.66075C6.17537 8.6631 6.17303 8.66545 6.17069 8.66778C6.16836 8.67012 6.16603 8.67245 6.16371 8.67476C6.16139 8.67708 6.15909 8.67939 6.15678 8.68169C6.15448 8.68399 6.15219 8.68629 6.14991 8.68857C6.14762 8.69085 6.14535 8.69313 6.14308 8.69539C6.14082 8.69766 6.13856 8.69992 6.13631 8.70216C6.13407 8.70441 6.13183 8.70665 6.1296 8.70888C6.12737 8.71111 6.12515 8.71333 6.12293 8.71555C6.12072 8.71776 6.11852 8.71996 6.11632 8.72216C6.11413 8.72435 6.11194 8.72653 6.10977 8.72871C6.10759 8.73089 6.10542 8.73306 6.10326 8.73521C6.10111 8.73737 6.09896 8.73952 6.09682 8.74166C6.09468 8.7438 6.09255 8.74593 6.09042 8.74805C6.0883 8.75017 6.08619 8.75229 6.08409 8.75439C6.08198 8.75649 6.07989 8.75859 6.0778 8.76067C6.07572 8.76276 6.07364 8.76483 6.07158 8.7669C6.06951 8.76897 6.06745 8.77103 6.06541 8.77307C6.06336 8.77512 6.06132 8.77716 6.05929 8.77919C6.05726 8.78122 6.05524 8.78324 6.05323 8.78525C6.05122 8.78726 6.04922 8.78926 6.04723 8.79125C6.04523 8.79324 6.04325 8.79523 6.04128 8.7972C6.03931 8.79917 6.03734 8.80113 6.03539 8.80309C6.03344 8.80504 6.03149 8.80699 6.02956 8.80892C6.02762 8.81086 6.0257 8.81278 6.02378 8.8147C6.02187 8.81661 6.01996 8.81852 6.01806 8.82041C6.01617 8.82231 6.01428 8.8242 6.0124 8.82607C6.01053 8.82795 6.00866 8.82982 6.0068 8.83168C6.00494 8.83353 6.0031 8.83538 6.00126 8.83722C5.99942 8.83906 5.99759 8.84089 5.99577 8.84271C5.99395 8.84453 5.99214 8.84633 5.99034 8.84813C5.98855 8.84993 5.98676 8.85172 5.98498 8.8535C5.9832 8.85528 5.98143 8.85705 5.97967 8.85881C5.97791 8.86057 5.97616 8.86232 5.97442 8.86406C5.97268 8.8658 5.97095 8.86753 5.96923 8.86925C5.96751 8.87097 5.9658 8.87268 5.9641 8.87438C5.9624 8.87608 5.96071 8.87777 5.95903 8.87945C5.95735 8.88113 5.95568 8.8828 5.95402 8.88446C5.95236 8.88612 5.95071 8.88777 5.94907 8.8894C5.94743 8.89104 5.9458 8.89267 5.94419 8.89429C5.94257 8.89591 5.94096 8.89752 5.93936 8.89912C5.93776 8.90072 5.93617 8.90231 5.93459 8.90388C5.93302 8.90546 5.93145 8.90703 5.92989 8.90859C5.92833 8.91015 5.92679 8.91169 5.92525 8.91323C5.92371 8.91477 5.92218 8.91629 5.92067 8.91781C5.91915 8.91933 5.91765 8.92083 5.91615 8.92233C5.91465 8.92382 5.91317 8.92531 5.9117 8.92678C5.91022 8.92826 5.90876 8.92972 5.9073 8.93117C5.90585 8.93263 5.90441 8.93407 5.90297 8.9355C5.90154 8.93694 5.90012 8.93836 5.89871 8.93977C5.8973 8.94118 5.8959 8.94258 5.89451 8.94397C5.89311 8.94536 5.89174 8.94674 5.89037 8.94811C5.889 8.94948 5.88764 8.95084 5.88629 8.95219C5.88494 8.95353 5.88361 8.95487 5.88228 8.9562C5.88095 8.95752 5.87964 8.95884 5.87833 8.96014C5.87703 8.96145 5.87574 8.96274 5.87445 8.96402C5.87317 8.96531 5.8719 8.96658 5.87064 8.96784C5.86937 8.9691 5.86812 8.97035 5.86688 8.97159C5.86564 8.97283 5.86442 8.97406 5.8632 8.97528C5.86198 8.9765 5.86077 8.9777 5.85958 8.9789C5.85838 8.9801 5.8572 8.98128 5.85602 8.98246C5.85485 8.98363 5.85369 8.98479 5.85253 8.98594C5.85138 8.9871 5.85024 8.98824 5.84911 8.98937C5.84798 8.9905 5.84686 8.99162 5.84575 8.99272C5.84465 8.99383 5.84355 8.99493 5.84247 8.99601C5.84138 8.9971 5.84031 8.99817 5.83924 8.99923C5.83818 9.0003 5.83713 9.00135 5.83609 9.00239C5.83505 9.00343 5.83402 9.00446 5.833 9.00548C5.83198 9.0065 5.83098 9.0075 5.82998 9.0085C5.82899 9.00949 5.828 9.01048 5.82703 9.01145C5.82606 9.01242 5.8251 9.01338 5.82415 9.01433C5.8232 9.01528 5.82226 9.01622 5.82133 9.01715C5.8204 9.01807 5.81949 9.01899 5.81858 9.01989C5.81768 9.0208 5.81679 9.02169 5.81591 9.02257C5.81503 9.02345 5.81416 9.02432 5.8133 9.02518C5.81244 9.02604 5.81159 9.02688 5.81076 9.02772C5.80992 9.02855 5.8091 9.02938 5.80829 9.03019C5.80748 9.031 5.80668 9.0318 5.80589 9.03259C5.8051 9.03338 5.80433 9.03415 5.80356 9.03492C5.8028 9.03568 5.80204 9.03644 5.8013 9.03718C5.80056 9.03792 5.79983 9.03865 5.79911 9.03937C5.7984 9.04008 5.79769 9.04079 5.797 9.04148C5.7963 9.04218 5.79562 9.04286 5.79495 9.04353C5.79428 9.0442 5.79362 9.04486 5.79297 9.04551C5.79233 9.04615 5.79169 9.04679 5.79107 9.04741C5.79045 9.04803 5.78984 9.04864 5.78924 9.04924C5.78864 9.04984 5.78805 9.05043 5.78748 9.051C5.7869 9.05158 5.78634 9.05214 5.78579 9.05269C5.78524 9.05324 5.7847 9.05378 5.78417 9.0543C5.78365 9.05483 5.78313 9.05535 5.78263 9.05585C5.78213 9.05635 5.78164 9.05684 5.78116 9.05732C5.78068 9.05779 5.78022 9.05826 5.77976 9.05871C5.77931 9.05917 5.77887 9.05961 5.77844 9.06004C5.77801 9.06047 5.7776 9.06088 5.77719 9.06129C5.77679 9.06169 5.7764 9.06208 5.77602 9.06246C5.77564 9.06284 5.77527 9.06321 5.77491 9.06356C5.77456 9.06392 5.77422 9.06426 5.77389 9.06459C5.77356 9.06492 5.77324 9.06524 5.77294 9.06554C5.77263 9.06585 5.77234 9.06614 5.77206 9.06642C5.77178 9.0667 5.77151 9.06697 5.77125 9.06722C5.771 9.06748 5.77076 9.06772 5.77053 9.06795C5.7703 9.06818 5.77008 9.0684 5.76988 9.0686C5.76967 9.06881 5.76948 9.069 5.7693 9.06918C5.76912 9.06936 5.76895 9.06952 5.7688 9.06968C5.76865 9.06983 5.7685 9.06997 5.76838 9.0701C5.76825 9.07023 5.76813 9.07035 5.76803 9.07045C5.76793 9.07055 5.76784 9.07064 5.76776 9.07072C5.76768 9.0708 5.76762 9.07086 5.76756 9.07091C5.76751 9.07096 5.76747 9.071 5.76745 9.07103C5.76742 9.07105 5.76741 9.07107 6.12096 9.42462C6.47452 9.77818 6.47453 9.77816 6.47456 9.77814C6.47458 9.77811 6.47462 9.77807 6.47467 9.77802C6.47472 9.77797 6.47479 9.7779 6.47486 9.77783C6.47494 9.77775 6.47503 9.77766 6.47514 9.77756C6.47524 9.77745 6.47535 9.77734 6.47548 9.77721C6.47561 9.77708 6.47575 9.77694 6.47591 9.77679C6.47606 9.77663 6.47623 9.77646 6.47641 9.77628C6.47659 9.77611 6.47678 9.77591 6.47698 9.77571C6.47719 9.7755 6.4774 9.77529 6.47763 9.77506C6.47786 9.77483 6.47811 9.77458 6.47836 9.77433C6.47862 9.77408 6.47888 9.77381 6.47916 9.77353C6.47944 9.77325 6.47974 9.77295 6.48004 9.77265C6.48035 9.77234 6.48066 9.77203 6.48099 9.7717C6.48132 9.77137 6.48167 9.77103 6.48202 9.77067C6.48238 9.77032 6.48274 9.76995 6.48312 9.76957C6.4835 9.76919 6.48389 9.7688 6.4843 9.76839C6.4847 9.76799 6.48512 9.76757 6.48555 9.76714C6.48598 9.76671 6.48642 9.76627 6.48687 9.76582C6.48732 9.76537 6.48779 9.7649 6.48827 9.76442C6.48875 9.76395 6.48924 9.76346 6.48974 9.76295C6.49024 9.76245 6.49075 9.76194 6.49128 9.76141C6.49181 9.76088 6.49234 9.76035 6.4929 9.7598C6.49345 9.75925 6.49401 9.75868 6.49458 9.75811C6.49516 9.75753 6.49574 9.75695 6.49634 9.75635C6.49694 9.75575 6.49755 9.75514 6.49818 9.75452C6.4988 9.75389 6.49943 9.75326 6.50008 9.75261C6.50073 9.75197 6.50138 9.75131 6.50206 9.75064C6.50273 9.74997 6.50341 9.74928 6.5041 9.74859C6.5048 9.7479 6.5055 9.74719 6.50622 9.74647C6.50694 9.74575 6.50767 9.74502 6.50841 9.74428C6.50915 9.74354 6.5099 9.74279 6.51067 9.74202C6.51143 9.74126 6.51221 9.74048 6.513 9.73969C6.51378 9.73891 6.51458 9.73811 6.5154 9.7373C6.51621 9.73648 6.51703 9.73566 6.51787 9.73483C6.5187 9.73399 6.51955 9.73314 6.5204 9.73229C6.52126 9.73143 6.52213 9.73056 6.52301 9.72968C6.52389 9.7288 6.52479 9.72791 6.52569 9.727C6.52659 9.7261 6.52751 9.72518 6.52844 9.72425C6.52936 9.72333 6.5303 9.72239 6.53125 9.72144C6.5322 9.72049 6.53316 9.71953 6.53414 9.71856C6.53511 9.71758 6.53609 9.7166 6.53709 9.7156C6.53808 9.71461 6.53909 9.7136 6.54011 9.71258C6.54113 9.71157 6.54215 9.71054 6.54319 9.7095C6.54424 9.70846 6.54529 9.7074 6.54635 9.70634C6.54741 9.70528 6.54849 9.7042 6.54957 9.70312C6.55066 9.70203 6.55175 9.70094 6.55286 9.69983C6.55397 9.69872 6.55509 9.6976 6.55622 9.69647C6.55735 9.69534 6.55849 9.6942 6.55964 9.69305C6.56079 9.6919 6.56196 9.69074 6.56313 9.68956C6.5643 9.68839 6.56549 9.6872 6.56668 9.68601C6.56788 9.68481 6.56909 9.6836 6.5703 9.68239C6.57152 9.68117 6.57275 9.67994 6.57399 9.6787C6.57523 9.67746 6.57648 9.67621 6.57774 9.67495C6.579 9.67369 6.58028 9.67241 6.58156 9.67113C6.58284 9.66985 6.58414 9.66855 6.58544 9.66725C6.58675 9.66595 6.58806 9.66463 6.58939 9.6633C6.59071 9.66198 6.59205 9.66064 6.5934 9.65929C6.59475 9.65795 6.5961 9.65659 6.59747 9.65522C6.59884 9.65385 6.60022 9.65247 6.60161 9.65108C6.603 9.64969 6.6044 9.64829 6.60581 9.64688C6.60723 9.64547 6.60865 9.64404 6.61008 9.64261C6.61151 9.64118 6.61296 9.63973 6.61441 9.63828C6.61586 9.63683 6.61733 9.63536 6.6188 9.63389C6.62028 9.63241 6.62176 9.63093 6.62326 9.62943C6.62475 9.62794 6.62626 9.62643 6.62778 9.62492C6.62929 9.6234 6.63082 9.62187 6.63236 9.62034C6.63389 9.6188 6.63544 9.61725 6.637 9.61569C6.63855 9.61414 6.64012 9.61257 6.6417 9.61099C6.64328 9.60941 6.64487 9.60782 6.64647 9.60623C6.64806 9.60463 6.64967 9.60302 6.65129 9.6014C6.65291 9.59978 6.65454 9.59815 6.65618 9.59651C6.65782 9.59487 6.65947 9.59322 6.66113 9.59156C6.66279 9.5899 6.66446 9.58823 6.66614 9.58655C6.66782 9.58487 6.66951 9.58318 6.67121 9.58148C6.67291 9.57978 6.67462 9.57807 6.67634 9.57636C6.67806 9.57463 6.67979 9.57291 6.68153 9.57117C6.68327 9.56943 6.68502 9.56768 6.68678 9.56592C6.68853 9.56416 6.6903 9.56239 6.69208 9.56061C6.69386 9.55883 6.69565 9.55704 6.69745 9.55524C6.69925 9.55344 6.70106 9.55163 6.70288 9.54981C6.7047 9.54799 6.70653 9.54617 6.70836 9.54433C6.7102 9.54249 6.71205 9.54064 6.71391 9.53878C6.71577 9.53693 6.71763 9.53506 6.71951 9.53318C6.72139 9.5313 6.72327 9.52942 6.72517 9.52752C6.72707 9.52563 6.72897 9.52372 6.73089 9.5218C6.7328 9.51989 6.73473 9.51796 6.73666 9.51603C6.7386 9.51409 6.74054 9.51215 6.7425 9.51019C6.74445 9.50824 6.74641 9.50628 6.74839 9.5043C6.75036 9.50233 6.75234 9.50035 6.75433 9.49836C6.75632 9.49637 6.75833 9.49437 6.76034 9.49235C6.76235 9.49034 6.76437 9.48832 6.7664 9.4863C6.76843 9.48427 6.77046 9.48223 6.77251 9.48018C6.77456 9.47813 6.77662 9.47607 6.77868 9.47401C6.78075 9.47194 6.78283 9.46987 6.78491 9.46778C6.787 9.4657 6.78909 9.4636 6.79119 9.4615C6.7933 9.45939 6.79541 9.45728 6.79753 9.45516C6.79965 9.45304 6.80178 9.45091 6.80392 9.44877C6.80606 9.44663 6.80821 9.44448 6.81037 9.44232C6.81253 9.44016 6.8147 9.43799 6.81687 9.43582C6.81905 9.43364 6.82124 9.43146 6.82343 9.42926C6.82562 9.42707 6.82783 9.42486 6.83004 9.42265C6.83225 9.42044 6.83447 9.41822 6.8367 9.41599C6.83893 9.41376 6.84117 9.41152 6.84342 9.40927C6.84567 9.40702 6.84793 9.40477 6.85019 9.4025C6.85246 9.40023 6.85473 9.39796 6.85701 9.39568C6.8593 9.39339 6.86159 9.3911 6.86389 9.3888C6.86619 9.3865 6.8685 9.38419 6.87082 9.38187C6.87314 9.37955 6.87547 9.37723 6.8778 9.37489C6.88014 9.37255 6.88248 9.37021 6.88483 9.36786C6.88719 9.3655 6.88955 9.36314 6.89192 9.36077C6.89429 9.3584 6.89667 9.35602 6.89906 9.35363C6.90144 9.35125 6.90384 9.34885 6.90624 9.34645C6.90865 9.34404 6.91106 9.34163 6.91348 9.33921C6.91591 9.33679 6.91834 9.33436 6.92077 9.33192C6.92321 9.32948 6.92566 9.32703 6.92812 9.32458C6.93057 9.32212 6.93303 9.31966 6.93551 9.31719C6.93798 9.31471 6.94046 9.31223 6.94295 9.30974C6.94544 9.30725 6.94793 9.30476 6.95044 9.30225C6.95295 9.29975 6.95546 9.29723 6.95798 9.29471C6.9605 9.29219 6.96303 9.28966 6.96557 9.28712C6.96811 9.28458 6.97066 9.28204 6.97321 9.27948C6.97577 9.27693 6.97833 9.27436 6.9809 9.27179C6.98347 9.26922 6.98605 9.26664 6.98864 9.26405C6.99122 9.26147 6.99382 9.25887 6.99642 9.25627C6.99903 9.25366 7.00164 9.25105 7.00426 9.24843C7.00688 9.24581 7.00951 9.24319 7.01214 9.24055C7.01478 9.23792 7.01742 9.23527 7.02007 9.23262C7.02272 9.22997 7.02538 9.22731 7.02805 9.22464C7.03072 9.22198 7.03339 9.2193 7.03607 9.21662C7.03876 9.21393 7.04145 9.21124 7.04415 9.20855C7.04684 9.20585 7.04955 9.20314 7.05227 9.20043C7.05498 9.19771 7.0577 9.19499 7.06043 9.19226C7.06316 9.18953 7.0659 9.18679 7.06864 9.18405C7.07139 9.1813 7.07414 9.17855 7.0769 9.17579C7.07966 9.17303 7.08243 9.17026 7.08521 9.16749C7.08798 9.16471 7.09076 9.16193 7.09356 9.15914C7.09635 9.15634 7.09915 9.15355 7.10195 9.15074C7.10476 9.14793 7.10757 9.14512 7.11039 9.1423C7.11321 9.13948 7.11604 9.13665 7.11888 9.13381C7.12171 9.13098 7.12456 9.12813 7.12741 9.12528C7.13026 9.12243 7.13312 9.11957 7.13598 9.11671C7.13885 9.11384 7.14172 9.11097 7.1446 9.10809C7.14748 9.10521 7.15037 9.10232 7.15326 9.09943C7.15616 9.09653 7.15906 9.09363 7.16197 9.09072C7.16488 9.08781 7.1678 9.08489 7.17072 9.08197C7.17365 9.07905 7.17658 9.07611 7.17952 9.07318C7.18245 9.07024 7.1854 9.06729 7.18835 9.06434C7.1913 9.06139 7.19426 9.05843 7.19723 9.05546C7.2002 9.05249 7.20317 9.04952 7.20615 9.04654C7.20913 9.04356 7.21212 9.04057 7.21512 9.03757C7.21811 9.03458 7.22112 9.03158 7.22412 9.02857C7.22713 9.02556 7.23015 9.02254 7.23317 9.01952C7.2362 9.01649 7.23923 9.01346 7.24226 9.01043C7.2453 9.00739 7.24834 9.00435 7.2514 9.0013C7.25445 8.99825 7.2575 8.99519 7.26057 8.99212C7.26363 8.98906 7.2667 8.98599 7.26978 8.98291C7.27286 8.97983 7.27594 8.97675 7.27904 8.97365C7.28213 8.97056 7.28523 8.96747 7.28833 8.96436C7.29144 8.96125 7.29455 8.95814 7.29767 8.95502C7.30078 8.95191 7.30391 8.94878 7.30704 8.94565C7.31017 8.94252 7.31331 8.93938 7.31646 8.93623C7.3196 8.93309 7.32275 8.92994 7.32591 8.92678C7.32907 8.92362 7.33223 8.92046 7.3354 8.91729C7.33858 8.91412 7.34175 8.91094 7.34494 8.90775C7.34812 8.90457 7.35131 8.90138 7.35451 8.89818C7.35771 8.89499 7.36091 8.89178 7.36412 8.88857C7.36733 8.88536 7.37054 8.88215 7.37377 8.87892C7.37699 8.8757 7.38022 8.87247 7.38345 8.86924C7.38669 8.866 7.38993 8.86276 7.39318 8.85951C7.39643 8.85627 7.39968 8.85301 7.40294 8.84975C7.4062 8.84649 7.40947 8.84322 7.41274 8.83995C7.41601 8.83668 7.41929 8.8334 7.42258 8.83012C7.42586 8.82683 7.42915 8.82354 7.43245 8.82024C7.43575 8.81694 7.43905 8.81364 7.44236 8.81033C7.44567 8.80702 7.44898 8.80371 7.45231 8.80039C7.45563 8.79706 7.45896 8.79374 7.46229 8.7904C7.46562 8.78707 7.46896 8.78373 7.47231 8.78038C7.47565 8.77704 7.479 8.77369 7.48236 8.77033C7.48572 8.76697 7.48908 8.76361 7.49245 8.76024C7.49582 8.75687 7.4992 8.7535 7.50258 8.75011C7.50596 8.74673 7.50934 8.74335 7.51274 8.73995C7.51613 8.73656 7.51953 8.73316 7.52293 8.72976C7.52634 8.72636 7.52975 8.72295 7.53316 8.71953C7.53658 8.71611 7.54 8.71269 7.54343 8.70927C7.54685 8.70584 7.55028 8.70241 7.55372 8.69897C7.55716 8.69553 7.56061 8.69209 7.56405 8.68864C7.5675 8.68519 7.57096 8.68173 7.57442 8.67827C7.57788 8.67481 7.58135 8.67134 7.58482 8.66787C7.58829 8.6644 7.59177 8.66092 7.59525 8.65744C7.59873 8.65396 7.60222 8.65047 7.60571 8.64698C7.60921 8.64348 7.61271 8.63998 7.61621 8.63648C7.61972 8.63297 7.62323 8.62947 7.62674 8.62595C7.63026 8.62243 7.63378 8.61891 7.6373 8.61539C7.64083 8.61186 7.64436 8.60833 7.6479 8.60479C7.65143 8.60126 7.65498 8.59772 7.65852 8.59417C7.66207 8.59062 7.66562 8.58707 7.66918 8.58351C7.67274 8.57995 7.6763 8.57639 7.67987 8.57282C7.68344 8.56926 7.68701 8.56568 7.69059 8.5621C7.69416 8.55853 7.69775 8.55494 7.70134 8.55135C7.70492 8.54777 7.70852 8.54417 7.71212 8.54057C7.71572 8.53698 7.71932 8.53337 7.72293 8.52976C7.72654 8.52616 7.73015 8.52254 7.73377 8.51892C7.73739 8.5153 7.74101 8.51168 7.74464 8.50805C7.74827 8.50442 7.7519 8.50079 7.75554 8.49715C7.75918 8.49351 7.76282 8.48987 7.76647 8.48622C7.77012 8.48258 7.77377 8.47892 7.77743 8.47527C7.78108 8.47161 7.78475 8.46795 7.78841 8.46428C7.79208 8.46061 7.79575 8.45694 7.79943 8.45326C7.80311 8.44959 7.80679 8.4459 7.81047 8.44222C7.81416 8.43853 7.81785 8.43484 7.82155 8.43115C7.82524 8.42745 7.82894 8.42375 7.83265 8.42005C7.83635 8.41634 7.84006 8.41263 7.84377 8.40892C7.84749 8.4052 7.85121 8.40149 7.85493 8.39776C7.85865 8.39404 7.86238 8.39031 7.86611 8.38658C7.86984 8.38285 7.87358 8.37911 7.87732 8.37537C7.88106 8.37163 7.88481 8.36788 7.88856 8.36413C7.89231 8.36038 7.89606 8.35663 7.89982 8.35287C7.90358 8.34911 7.90734 8.34535 7.91111 8.34158C7.91488 8.33782 7.91865 8.33404 7.92242 8.33027C7.9262 8.32649 7.92998 8.32271 7.93376 8.31893C7.93755 8.31514 7.94134 8.31135 7.94513 8.30756C7.94892 8.30377 7.95272 8.29997 7.95652 8.29617C7.96032 8.29237 7.96413 8.28856 7.96794 8.28475C7.97175 8.28094 7.97556 8.27713 7.97938 8.27331C7.9832 8.26949 7.98702 8.26567 7.99085 8.26185C7.99467 8.25802 7.9985 8.25419 8.00234 8.25036C8.00617 8.24652 8.01001 8.24268 8.01385 8.23884C8.01769 8.235 8.02154 8.23115 8.02539 8.2273C8.02924 8.22345 8.03309 8.2196 8.03695 8.21574C8.04081 8.21188 8.04467 8.20802 8.04854 8.20416C8.0524 8.20029 8.05627 8.19642 8.06014 8.19255C8.06402 8.18867 8.0679 8.1848 8.07178 8.18092C8.07566 8.17703 8.07954 8.17315 8.08343 8.16926C8.08732 8.16537 8.09121 8.16148 8.09511 8.15759C8.099 8.15369 8.1029 8.14979 8.10681 8.14589C8.11071 8.14198 8.11462 8.13808 8.11853 8.13417C8.12244 8.13025 8.12635 8.12634 8.13027 8.12242C8.13419 8.11851 8.13811 8.11458 8.14203 8.11066C8.14596 8.10673 8.14989 8.10281 8.15382 8.09887C8.15775 8.09494 8.16168 8.09101 8.16562 8.08707C8.16956 8.08313 8.1735 8.07919 8.17745 8.07524C8.1814 8.0713 8.18535 8.06735 8.1893 8.06339C8.19325 8.05944 8.19721 8.05548 8.20117 8.05153C8.20513 8.04757 8.20909 8.0436 8.21305 8.03964C8.21702 8.03567 8.22099 8.0317 8.22496 8.02773C8.22893 8.02376 8.23291 8.01978 8.23689 8.0158C8.24087 8.01182 8.24485 8.00784 8.24884 8.00386C8.25282 7.99987 8.25681 7.99588 8.2608 7.99189C8.26479 7.9879 8.26879 7.9839 8.27279 7.97991C8.27678 7.97591 8.28079 7.97191 8.28479 7.9679C8.28879 7.9639 8.2928 7.95989 8.29681 7.95588C8.30082 7.95187 8.30484 7.94786 8.30885 7.94384C8.31287 7.93982 8.31689 7.9358 8.32091 7.93178C8.32493 7.92776 8.32896 7.92373 8.33298 7.91971C8.33701 7.91568 8.34104 7.91165 8.34508 7.90761C8.34911 7.90358 8.35315 7.89954 8.35719 7.8955C8.36123 7.89146 8.36527 7.88742 8.36932 7.88338C8.37336 7.87933 8.37741 7.87528 8.38146 7.87123C8.38551 7.86718 8.38956 7.86313 8.39362 7.85907C8.39768 7.85501 8.40174 7.85096 8.4058 7.84689C8.40986 7.84283 8.41392 7.83877 8.41799 7.8347C8.42206 7.83063 8.42613 7.82656 8.4302 7.82249C8.43427 7.81842 8.43835 7.81435 8.44242 7.81027C8.4465 7.80619 8.45058 7.80211 8.45466 7.79803C8.45875 7.79395 8.46283 7.78986 8.46692 7.78577C8.47101 7.78169 8.47509 7.7776 8.47919 7.7735C8.48328 7.76941 8.48737 7.76532 8.49147 7.76122C8.49557 7.75712 8.49967 7.75302 8.50377 7.74892C8.50787 7.74482 8.51198 7.74072 8.51608 7.73661C8.52019 7.7325 8.5243 7.72839 8.52841 7.72428C8.53252 7.72017 8.53663 7.71606 8.54075 7.71194C8.54487 7.70783 8.54898 7.70371 8.5531 7.69959C8.55722 7.69547 8.56135 7.69135 8.56547 7.68722C8.5696 7.6831 8.57372 7.67897 8.57785 7.67484C8.58198 7.67071 8.58611 7.66658 8.59024 7.66245C8.59438 7.65832 8.59851 7.65418 8.60265 7.65004C8.60679 7.64591 8.61092 7.64177 8.61507 7.63763C8.61921 7.63348 8.62335 7.62934 8.6275 7.6252C8.63164 7.62105 8.63579 7.6169 8.63994 7.61275C8.64409 7.60861 8.64824 7.60445 8.65239 7.6003C8.65654 7.59615 8.6607 7.59199 8.66485 7.58784C8.66901 7.58368 8.67317 7.57952 8.67733 7.57536C8.68149 7.5712 8.68565 7.56704 8.68981 7.56288C8.69398 7.55871 8.69814 7.55455 8.70231 7.55038C8.70648 7.54621 8.71065 7.54204 8.71482 7.53787C8.71899 7.5337 8.72316 7.52953 8.72733 7.52536C8.73151 7.52118 8.73568 7.51701 8.73986 7.51283C8.74404 7.50865 8.74822 7.50447 8.7524 7.50029C8.75658 7.49611 8.76076 7.49193 8.76494 7.48775C8.76913 7.48356 8.77331 7.47938 8.7775 7.47519C8.78169 7.47101 8.78587 7.46682 8.79006 7.46263C8.79425 7.45844 8.79844 7.45425 8.80264 7.45006C8.80683 7.44586 8.81102 7.44167 8.81522 7.43747C8.81941 7.43328 8.82361 7.42908 8.82781 7.42488C8.832 7.42069 8.8362 7.41649 8.8404 7.41229C8.8446 7.40809 8.84881 7.40389 8.85301 7.39968C8.85721 7.39548 8.86142 7.39127 8.86562 7.38707C8.86983 7.38286 8.87403 7.37866 8.87824 7.37445C8.88245 7.37024 8.88666 7.36603 8.89087 7.36182C8.89508 7.35761 8.89929 7.3534 8.9035 7.34919C8.90772 7.34498 8.91193 7.34076 8.91614 7.33655C8.92036 7.33233 8.92457 7.32812 8.92879 7.3239C8.93301 7.31969 8.93722 7.31547 8.94144 7.31125C8.94566 7.30703 8.94988 7.30281 8.9541 7.29859C8.95832 7.29437 8.96254 7.29015 8.96677 7.28593C8.97099 7.2817 8.97521 7.27748 8.97943 7.27326C8.98366 7.26903 8.98788 7.26481 8.99211 7.26058C8.99634 7.25636 9.00056 7.25213 9.00479 7.2479C9.00902 7.24367 9.01324 7.23945 9.01747 7.23522C9.0217 7.23099 9.02593 7.22676 9.03016 7.22253C9.03439 7.2183 9.03862 7.21407 9.04286 7.20984C9.04709 7.2056 9.05132 7.20137 9.05555 7.19714C9.05979 7.19291 9.06402 7.18867 9.06825 7.18444C9.07249 7.1802 9.07672 7.17597 9.08096 7.17173C9.08519 7.1675 9.08943 7.16326 9.09366 7.15903C9.0979 7.15479 9.10214 7.15055 9.10637 7.14632C9.11061 7.14208 9.11485 7.13784 9.11909 7.1336C9.12333 7.12937 9.12756 7.12513 9.1318 7.12089C9.13604 7.11665 9.14028 7.11241 9.14452 7.10817C9.14876 7.10393 9.153 7.09969 9.15724 7.09545C9.16148 7.09121 9.16572 7.08697 9.16996 7.08273C9.1742 7.07849 9.17844 7.07425 9.18269 7.07001C9.18693 7.06576 9.19117 7.06152 9.19541 7.05728C9.19965 7.05304 9.20389 7.0488 9.20814 7.04455C9.21238 7.04031 9.21662 7.03607 9.22086 7.03183C9.22511 7.02759 9.22935 7.02334 9.23359 7.0191C9.23783 7.01486 9.24208 7.01062 9.24632 7.00637C9.25056 7.00213 9.2548 6.99789 9.25905 6.99364C9.26329 6.9894 9.26753 6.98516 9.27177 6.98092C9.27602 6.97667 9.28026 6.97243 9.2845 6.96819C9.28874 6.96395 9.29299 6.9597 9.29723 6.95546C9.30147 6.95122 9.30571 6.94698 9.30996 6.94274C9.3142 6.93849 9.31844 6.93425 9.32268 6.93001C9.32692 6.92577 9.33116 6.92153 9.3354 6.91729C9.33965 6.91305 9.34389 6.90881 9.34813 6.90456C9.35237 6.90032 9.35661 6.89608 9.36085 6.89184C9.36509 6.8876 9.36933 6.88336 9.37357 6.87913C9.37781 6.87489 9.38204 6.87065 9.38628 6.86641C9.39052 6.86217 9.39476 6.85793 9.399 6.8537C9.40323 6.84946 9.40747 6.84522 9.41171 6.84098C9.41594 6.83675 9.42018 6.83251 9.42442 6.82828C9.42865 6.82404 9.43289 6.8198 9.43712 6.81557C9.44136 6.81134 9.44559 6.8071 9.44982 6.80287C9.45406 6.79863 9.45829 6.7944 9.46252 6.79017C9.46675 6.78594 9.47099 6.78171 9.47522 6.77748C9.47945 6.77324 9.48368 6.76901 9.48791 6.76479C9.49214 6.76056 9.49636 6.75633 9.50059 6.7521C9.50482 6.74787 9.50905 6.74364 9.51327 6.73942C9.5175 6.73519 9.52173 6.73097 9.52595 6.72674C9.53017 6.72252 9.5344 6.71829 9.53862 6.71407C9.54284 6.70985 9.54707 6.70562 9.55129 6.7014C9.55551 6.69718 9.55973 6.69296 9.56395 6.68874C9.56817 6.68452 9.57239 6.68031 9.5766 6.67609C9.58082 6.67187 9.58504 6.66765 9.58925 6.66344C9.59347 6.65922 9.59768 6.65501 9.60189 6.6508C9.60611 6.64658 9.61032 6.64237 9.61453 6.63816C9.61874 6.63395 9.62295 6.62974 9.62716 6.62553C9.63137 6.62132 9.63558 6.61711 9.63978 6.61291C9.64399 6.6087 9.64819 6.6045 9.6524 6.60029C9.6566 6.59609 9.6608 6.59189 9.66501 6.58769C9.66921 6.58348 9.67341 6.57928 9.67761 6.57509C9.68181 6.57089 9.686 6.56669 9.6902 6.56249C9.69439 6.5583 9.69859 6.5541 9.70278 6.54991C9.70698 6.54572 9.71117 6.54152 9.71536 6.53733C9.71955 6.53314 9.72374 6.52895 9.72793 6.52477C9.73211 6.52058 9.7363 6.51639 9.74048 6.51221C9.74467 6.50802 9.74885 6.50384 9.75303 6.49966C9.75722 6.49548 9.7614 6.4913 9.76557 6.48712C9.76975 6.48294 9.77393 6.47876 9.7781 6.47459C9.78228 6.47041 9.78645 6.46624 9.79062 6.46207C9.7948 6.4579 9.79897 6.45372 9.80314 6.44956C9.8073 6.44539 9.81147 6.44122 9.81564 6.43706C9.8198 6.43289 9.82396 6.42873 9.82813 6.42457C9.83229 6.4204 9.83645 6.41625 9.8406 6.41209C9.84476 6.40793 9.84892 6.40377 9.85307 6.39962C9.85723 6.39547 9.86138 6.39131 9.86553 6.38716C9.86968 6.38301 9.87383 6.37886 9.87797 6.37472C9.88212 6.37057 9.88627 6.36643 9.89041 6.36228C9.89455 6.35814 9.89869 6.354 9.90283 6.34986C9.90697 6.34572 9.9111 6.34159 9.91524 6.33745C9.91937 6.33332 9.92351 6.32918 9.92764 6.32505C9.93177 6.32092 9.9359 6.3168 9.94002 6.31267C9.94415 6.30854 9.94827 6.30442 9.95239 6.3003C9.95651 6.29618 9.96063 6.29206 9.96475 6.28794C9.96887 6.28382 9.97298 6.27971 9.9771 6.27559C9.98121 6.27148 9.98532 6.26737 9.98943 6.26326C9.99354 6.25915 9.99764 6.25505 10.0017 6.25095C10.0058 6.24684 10.01 6.24274 10.014 6.23864C10.0181 6.23454 10.0222 6.23045 10.0263 6.22635C10.0304 6.22226 10.0345 6.21817 10.0386 6.21408C10.0427 6.20999 10.0468 6.2059 10.0509 6.20182C10.055 6.19773 10.059 6.19365 10.0631 6.18957C10.0672 6.18549 10.0713 6.18142 10.0753 6.17734C10.0794 6.17327 10.0835 6.1692 10.0876 6.16513C10.0916 6.16106 10.0957 6.15699 10.0998 6.15293C10.1038 6.14887 10.1079 6.1448 10.1119 6.14075C10.116 6.13669 10.1201 6.13263 10.1241 6.12858C10.1282 6.12453 10.1322 6.12048 10.1363 6.11643C10.1403 6.11238 10.1444 6.10834 10.1484 6.1043C10.1524 6.10025 10.1565 6.09622 10.1605 6.09218C10.1645 6.08814 10.1686 6.08411 10.1726 6.08008C10.1766 6.07605 10.1807 6.07202 10.1847 6.068C10.1887 6.06397 10.1927 6.05995 10.1968 6.05593C10.2008 6.05192 10.2048 6.0479 10.2088 6.04389C10.2128 6.03988 10.2168 6.03587 10.2208 6.03186C10.2248 6.02785 10.2288 6.02385 10.2328 6.01985C10.2368 6.01585 10.2408 6.01185 10.2448 6.00786C10.2488 6.00386 10.2528 5.99987 10.2568 5.99589C10.2608 5.9919 10.2648 5.98791 10.2688 5.98393C10.2727 5.97995 10.2767 5.97597 10.2807 5.972C10.2847 5.96802 10.2886 5.96405 10.2926 5.96008C10.2966 5.95611 10.3005 5.95215 10.3045 5.94819C10.3085 5.94423 10.3124 5.94027 10.3164 5.93631C10.3203 5.93236 10.3243 5.92841 10.3282 5.92446C10.3322 5.92051 10.3361 5.91656 10.3401 5.91262C10.344 5.90868 10.3479 5.90474 10.3519 5.90081C10.3558 5.89687 10.3597 5.89294 10.3637 5.88902C10.3676 5.88509 10.3715 5.88117 10.3754 5.87724C10.3794 5.87332 10.3833 5.86941 10.3872 5.86549C10.3911 5.86158 10.395 5.85767 10.3989 5.85377C10.4028 5.84986 10.4067 5.84596 10.4106 5.84206C10.4145 5.83816 10.4184 5.83427 10.4223 5.83037C10.4262 5.82648 10.4301 5.8226 10.434 5.81871C10.4379 5.81483 10.4417 5.81095 10.4456 5.80707C10.4495 5.8032 10.4534 5.79933 10.4572 5.79546C10.4611 5.79159 10.465 5.78772 10.4688 5.78386C10.4727 5.78 10.4765 5.77615 10.4804 5.77229C10.4843 5.76844 10.4881 5.76459 10.4919 5.76075C10.4958 5.7569 10.4996 5.75306 10.5035 5.74922C10.5073 5.74539 10.5111 5.74155 10.515 5.73772C10.5188 5.73389 10.5226 5.73007 10.5264 5.72625C10.5303 5.72243 10.5341 5.71861 10.5379 5.7148C10.5417 5.71099 10.5455 5.70718 10.5493 5.70337C10.5531 5.69957 10.5569 5.69577 10.5607 5.69197C10.5645 5.68818 10.5683 5.68439 10.5721 5.6806C10.5759 5.67681 10.5797 5.67303 10.5834 5.66925C10.5872 5.66547 10.591 5.66169 10.5948 5.65792C10.5985 5.65415 10.6023 5.65039 10.6061 5.64663C10.6098 5.64286 10.6136 5.63911 10.6173 5.63535C10.6211 5.6316 10.6248 5.62785 10.6286 5.62411C10.6323 5.62036 10.6361 5.61662 10.6398 5.61289C10.6435 5.60915 10.6473 5.60542 10.651 5.6017C10.6547 5.59797 10.6584 5.59425 10.6622 5.59053C10.6659 5.58681 10.6696 5.5831 10.6733 5.57939C10.677 5.57568 10.6807 5.57198 10.6844 5.56828C10.6881 5.56458 10.6918 5.56089 10.6955 5.5572C10.6992 5.55351 10.7029 5.54983 10.7065 5.54615C10.7102 5.54247 10.7139 5.53879 10.7176 5.53512C10.7212 5.53145 10.7249 5.52778 10.7286 5.52412C10.7322 5.52046 10.7359 5.5168 10.7395 5.51315C10.7432 5.5095 10.7468 5.50586 10.7505 5.50221C10.7541 5.49857 10.7578 5.49493 10.7614 5.4913C10.765 5.48767 10.7686 5.48404 10.7723 5.48042C10.7759 5.4768 10.7795 5.47318 10.7831 5.46957C10.7867 5.46596 10.7903 5.46235 10.7939 5.45875C10.7975 5.45515 10.8011 5.45155 10.8047 5.44796C10.8083 5.44437 10.8119 5.44078 10.8155 5.4372C10.8191 5.43362 10.8227 5.43004 10.8262 5.42647C10.8298 5.4229 10.8334 5.41933 10.8369 5.41577C10.8405 5.41221 10.844 5.40865 10.8476 5.4051C10.8511 5.40155 10.8547 5.398 10.8582 5.39446C10.8618 5.39092 10.8653 5.38739 10.8688 5.38386C10.8724 5.38033 10.8759 5.3768 10.8794 5.37328C10.8829 5.36977 10.8864 5.36625 10.8899 5.36274C10.8935 5.35923 10.897 5.35573 10.9005 5.35223C10.904 5.34874 10.9074 5.34524 10.9109 5.34176C10.9144 5.33827 10.9179 5.33479 10.9214 5.33131C10.9249 5.32784 10.9283 5.32437 10.9318 5.3209C10.9353 5.31744 10.9387 5.31398 10.9422 5.31053C10.9456 5.30707 10.9491 5.30362 10.9525 5.30018C10.956 5.29674 10.9594 5.2933 10.9628 5.28987C10.9662 5.28644 10.9697 5.28302 10.9731 5.2796C10.9765 5.27618 10.9799 5.27276 10.9833 5.26935C10.9867 5.26595 10.9901 5.26254 10.9935 5.25915C10.9969 5.25575 11.0003 5.25236 11.0037 5.24897C11.0071 5.24559 11.0105 5.24221 11.0139 5.23884C11.0172 5.23546 11.0206 5.2321 11.024 5.22873C11.0273 5.22537 11.0307 5.22202 11.034 5.21867C11.0374 5.21532 11.0407 5.21197 11.0441 5.20864C11.0474 5.2053 11.0507 5.20197 11.0541 5.19864C11.0574 5.19531 11.0607 5.19199 11.064 5.18868C11.0673 5.18537 11.0706 5.18206 11.0739 5.17876C11.0772 5.17546 11.0805 5.17216 11.0838 5.16887C11.0871 5.16558 11.0904 5.1623 11.0937 5.15902C11.0969 5.15574 11.1002 5.15247 11.1035 5.14921C11.1067 5.14594 11.11 5.14268 11.1133 5.13943C11.1165 5.13618 11.1198 5.13293 11.123 5.12969C11.1262 5.12645 11.1295 5.12322 11.1327 5.11999C11.1359 5.11677 11.1391 5.11355 11.1424 5.11033C11.1456 5.10712 11.1488 5.10391 11.152 5.10071C11.1552 5.09751 11.1584 5.09431 11.1616 5.09112C11.1648 5.08793 11.1679 5.08475 11.1711 5.08158C11.1743 5.0784 11.1775 5.07523 11.1806 5.07207C11.1838 5.06891 11.1869 5.06575 11.1901 5.0626C11.1932 5.05945 11.1964 5.05631 11.1995 5.05317C11.2027 5.05003 11.2058 5.0469 11.2089 5.04378C11.212 5.04066 11.2152 5.03754 11.2183 5.03443C11.2214 5.03132 11.2245 5.02822 11.2276 5.02512C11.2307 5.02203 11.2338 5.01894 11.2368 5.01585C11.2399 5.01277 11.243 5.00969 11.2461 5.00662C11.2491 5.00356 11.2522 5.00049 11.2553 4.99744C11.2583 4.99438 11.2614 4.99133 11.2644 4.98829C11.2674 4.98525 11.2705 4.98221 11.2735 4.97919C11.2765 4.97616 11.2796 4.97314 11.2826 4.97012C11.2856 4.96711 11.2886 4.9641 11.2916 4.9611C11.2946 4.9581 11.2976 4.95511 11.3006 4.95212C11.3036 4.94913 11.3065 4.94615 11.3095 4.94318C11.3125 4.94021 11.3154 4.93725 11.3184 4.93429C11.3214 4.93133 11.3243 4.92838 11.3273 4.92544C11.3302 4.92249 11.3331 4.91956 11.3361 4.91663C11.339 4.9137 11.3419 4.91078 11.3448 4.90786C11.3477 4.90495 11.3507 4.90204 11.3536 4.89914L10.6464 4.19203ZM7.74731 11.051L10.9293 7.86899L10.2222 7.16188L7.0402 10.3439L7.74731 11.051ZM5.76741 9.07107C5.22001 9.61847 5.22001 10.5036 5.76741 11.051L6.47452 10.3439C6.31764 10.187 6.31764 9.93505 6.47452 9.77818L5.76741 9.07107ZM5.76741 11.051C6.31481 11.5984 7.19991 11.5984 7.74731 11.051L7.0402 10.3439C6.88333 10.5007 6.63139 10.5007 6.47452 10.3439L5.76741 11.051Z" fill="#232323"/>
</svg>
