<svg width="155" height="130" viewBox="0 0 155 130" fill="none" xmlns="http://www.w3.org/2000/svg">
<path d="M67.4031 93.4062C64.2918 93.4062 61.7615 95.7689 61.7615 98.6719C61.7615 101.575 64.2917 103.938 67.4031 103.938C70.5144 103.938 73.0447 101.575 73.0447 98.6719C73.0447 95.7691 70.5145 93.4062 67.4031 93.4062ZM67.4031 100.566C66.2839 100.566 65.3751 99.7166 65.3751 98.6719C65.3751 97.6273 66.2851 96.778 67.4031 96.778C68.5223 96.778 69.4323 97.6273 69.4323 98.6719C69.4334 99.7166 68.5223 100.566 67.4031 100.566ZM60.7008 8.41161C60.7008 7.48081 61.5103 6.72524 62.5076 6.72524H71.711C72.7083 6.72524 73.5178 7.48081 73.5178 8.41161C73.5178 9.34241 72.7083 10.098 71.711 10.098H62.5076C61.508 10.098 60.7008 9.34241 60.7008 8.41161ZM143.488 88.9002L143.087 85.4916C142.518 80.6533 140.173 76.0922 136.486 72.6502L113.211 50.9259C110.876 48.7462 106.652 48.6234 104.17 50.6603C102.581 51.9638 102.391 53.3846 102.252 54.4203C102.148 55.1993 102.082 55.5609 101.655 55.9593C101.469 56.1323 101.263 56.206 100.879 56.2183L100.878 6.14969C100.878 2.75912 97.9222 0.00111607 94.2906 0.00111607L40.5257 0C36.8968 0 33.9431 2.75891 33.9431 6.14857V39.7314L14.0893 57.1623L8.01851 87.4851V99.2463L0 106.415L26.1652 129.41L34.1158 121.989L38.9419 121.462C44.3156 120.878 49.4191 118.618 53.31 115.101L59.1977 109.776H91.6085L110.416 116.783C113.551 117.951 117.055 117.551 119.767 115.804L128.007 123.495L154.279 98.9724L143.488 88.9002ZM37.559 6.14876C37.559 4.6175 38.8911 3.3731 40.5281 3.3731H94.2929C95.9335 3.3731 97.2667 4.61753 97.2667 6.14876V56.2373C96.3735 56.407 95.4313 56.7954 94.5464 57.6201C94.0526 58.0811 93.7118 58.542 93.475 58.9918V13.4604H41.3478V33.2349L37.5597 36.5609L37.559 6.14876ZM83.7233 70.0488C83.7615 70.8088 83.7615 71.1827 83.5893 71.3434C83.4231 71.4974 83.1541 71.4974 82.9891 71.3423L66.2058 55.6771C63.495 53.147 59.2097 52.8031 56.2392 54.8802C54.4683 56.1191 53.3623 57.9985 53.2056 60.0388C53.0501 62.0801 53.8489 64.0822 55.3986 65.5288L79.159 87.694L44.9606 87.6917V52.866L46.5581 51.1495C50.7696 46.6295 50.6091 39.9464 46.1826 35.6038L44.9582 34.4051L44.9594 16.8314H89.8594V63.0371C88.6218 63.0048 87.1343 63.2626 85.6599 64.6398C83.5518 66.6074 83.6546 68.6778 83.7216 70.0484L83.7233 70.0488ZM50.7982 112.677C47.4742 115.682 43.1167 117.612 38.5239 118.112L32.4507 118.776L26.0928 124.71L5.24992 106.393L11.635 100.688V87.7982L17.4272 58.864L42.4816 36.8651L43.5661 37.9276C46.7001 41.0013 46.8124 45.7345 43.8304 48.9353L33.944 59.5559L33.9464 103.63C33.9464 107.017 36.8998 109.774 40.5289 109.774H54.0072L50.7982 112.677ZM40.5292 106.402C38.8922 106.402 37.5602 105.158 37.5602 103.63V60.819L41.3483 56.7487V91.063H79.2935L77.9579 94.5216C76.1798 99.1276 78.2927 104.119 82.7815 106.4L40.5294 106.401L40.5292 106.402ZM119.885 111.142L118.608 112.334C116.809 114.012 114.12 114.529 111.756 113.648L85.2682 103.781C81.8162 102.494 80.0977 98.9298 81.3583 95.6663L83.0395 91.3081L89.2608 97.1115L91.8149 94.7264L57.9563 63.1436C57.1492 62.388 56.7307 61.3456 56.8132 60.2799C56.8957 59.1995 57.4625 58.2419 58.4071 57.5812C59.9484 56.5042 62.2022 56.7106 63.6529 58.0644L80.4362 73.7296C82.005 75.1939 84.5625 75.1983 86.1613 73.7151C87.4623 72.5008 87.3881 70.9952 87.3343 69.8959C87.2781 68.7631 87.2387 67.9439 88.2192 67.0276C88.9904 66.3078 89.5154 66.3446 90.7326 66.5042C91.8865 66.656 93.6335 66.887 95.1246 65.4931C96.6193 64.098 96.5906 62.6302 96.5703 61.6593C96.5536 60.858 96.5464 60.5254 97.1048 60.0053C97.7015 59.4484 98.2204 59.4361 99.5513 59.5377C100.873 59.6415 102.679 59.781 104.217 58.3457C105.538 57.1124 105.715 55.7999 105.843 54.8411C105.957 53.9963 106.025 53.6347 106.563 53.1927C107.608 52.3322 109.678 52.3925 110.662 53.311L133.937 75.0353C137.045 77.9382 139.021 81.7807 139.501 85.8613L140.041 90.4473L149.177 98.9742L128.011 118.726L119.885 111.142Z" fill="#3A4345"/>
</svg>
