<svg width="130" height="161" viewBox="0 0 130 161" fill="none" xmlns="http://www.w3.org/2000/svg">
<path fill-rule="evenodd" clip-rule="evenodd" d="M83.0257 142.732C83.8303 142.422 84.3873 142.422 85.2232 142.267C88.3795 141.71 90.2678 140.998 91.7532 142.608C93.6103 144.589 92.9296 145.022 92.3726 145.764L91.3202 147.342C89.4943 149.725 86.3682 149.849 83.521 150.252C79.4665 150.84 78.2599 151.18 73.7722 151.397L73.4005 150.159C73.8961 149.88 73.6795 150.128 74.1126 149.911C75.4128 149.231 75.8146 147.157 77.1149 146.817C77.3314 147.869 77.0535 147.466 77.703 148.054C79.2811 149.509 78.2287 149.664 81.0456 149.632L80.7365 148.889L85.8736 147.032C87.6069 146.536 87.1738 146.475 87.2665 145.918C86.214 145.794 85.7196 146.661 84.3567 146.754C83.7998 146.228 84.1715 146.197 83.4907 145.733C83.0264 145.392 82.9025 145.516 82.6547 145.021C84.2954 143.659 89.897 144.092 90.6705 143.535C90.051 142.699 85.0376 143.504 83.8925 143.876L82.2831 144.278C82.2831 144.278 81.9427 144.401 81.8813 144.433C81.3244 143.907 81.6023 143.844 80.9527 143.443L83.0264 142.731L83.0257 142.732ZM52.2028 137.749C54.0599 137.44 54.0599 137.1 56.2262 136.759C57.0309 136.635 56.6593 136.759 57.4952 136.821C57.4338 137.842 56.9383 140.752 57.1861 141.432C57.5577 141.556 57.4026 141.712 58.0521 141.061L58.2072 140.906C59.4137 141.742 59.3836 142.33 61.6112 143.32C63.6849 144.28 64.4895 143.568 65.975 142.67C67.0587 142.051 68.7294 141.34 69.6581 140.565C71.5152 139.049 72.0722 139.761 72.4126 137.533C72.9695 137.626 73.5889 137.626 74.0833 137.688C74.7028 137.812 74.609 137.967 74.9494 138.308C76.8065 138.4 75.321 137.688 77.1782 138.246L77.3333 139.082C78.6949 139.423 78.0141 138.927 79.0041 139.732C78.9115 139.917 78.5398 140.32 78.7563 140.815C79.0655 141.435 79.1894 141.001 79.5298 141.404C79.8088 141.744 79.282 142.765 78.9416 143.106L70.2139 145.272C69.5331 145.457 68.6357 145.674 67.9237 145.767C62.3534 146.572 62.0128 147.314 58.2674 144.003L56.225 142.549C54.244 141.002 53.4706 142.517 52.1402 140.691L51.985 140.475C51.6759 140.103 51.3656 140.135 50.9013 139.949C50.9627 138.309 50.6223 138.464 52.418 138.495C52.5419 138.216 52.2015 137.814 52.2015 137.752L52.2028 137.749ZM55.0187 143.412C53.0689 143.288 48.5812 145.177 46.4772 145.671C42.9181 146.476 44.0944 146.724 40.1024 145.423C39.4829 145.238 38.7408 145.083 38.0912 144.774C37.3791 144.465 35.4919 142.948 35.1515 142.267C34.5946 141.215 36.4517 139.605 37.2564 139.141L45.1481 136.231C45.1794 136.263 45.2095 136.293 45.2095 136.324L45.6113 136.912L42.6716 137.408C42.3925 137.469 42.3624 137.439 42.1459 137.593C41.6816 137.872 42.2073 137.314 41.8367 137.902C42.4863 138.274 43.4149 137.778 44.0655 137.654C44.7463 137.531 45.6437 137.499 46.4796 137.407C47.4082 137.345 50.657 137.035 51.3379 137.407C50.6258 138.52 43.137 137.964 42.1459 138.953C42.3312 139.542 42.5477 139.603 43.1057 139.449L45.8602 138.953C46.82 138.83 49.4193 138.273 50.1002 138.737C49.8837 138.985 44.5299 139.573 43.6325 139.821C42.3635 140.161 38.4639 140.657 38.1862 141.926C39.0835 141.833 40.1047 141.276 40.9719 141.028C43.819 140.192 46.9753 139.543 49.9462 139.635C50.3792 140.224 50.5031 140.533 51.06 140.904L51.2453 141.06C50.6571 141.524 50.2553 141.339 49.4506 141.461C49.4194 141.43 49.3893 141.369 49.3893 141.306C49.0801 140.811 48.8937 140.749 48.2754 140.811C46.1404 140.935 44.098 141.336 41.9931 141.647C41.1572 141.77 40.136 141.77 39.7956 142.606C41.405 143.102 40.2912 142.73 41.4976 142.39C42.4574 142.111 46.6662 141.245 47.5633 141.709L46.7274 141.957C46.5109 142.018 46.2631 142.049 46.0466 142.112C45.2419 142.297 42.9829 142.576 42.3634 142.855C41.6201 143.227 42.1469 142.855 41.8378 143.381C42.2395 143.907 41.8378 143.783 42.4873 143.753C43.2607 143.721 42.3634 143.845 43.0442 143.443C43.8489 142.979 50.1928 141.865 51.2762 141.865C52.0196 141.865 51.9883 141.927 52.2974 142.422C51.7093 142.546 50.3477 142.67 49.6055 142.731C47.9648 142.887 46.3866 143.288 44.7775 143.66C44.3132 143.784 43.4772 143.845 43.2607 144.31C42.8277 145.331 43.1056 144.402 43.3221 144.835C43.9716 145.02 43.6011 144.774 44.3746 144.464C45.9839 143.844 49.3266 143.287 51.0597 143.133C51.957 143.072 52.6378 143.164 53.3499 142.669C54.3711 141.957 52.5765 142.917 53.5664 142.514C54.3398 142.545 55.0206 142.669 55.5474 143.071C56.2282 143.535 59.3543 145.856 59.5083 146.197C58.3018 147.311 56.1354 147.373 54.526 147.899C53.7827 148.146 53.4122 148.208 53.2883 148.827C53.9077 149.199 54.4948 148.642 55.1454 148.456C56.3831 148.084 58.0551 147.744 59.2 147.155C60.4065 146.536 59.6955 146.722 60.8708 147C60.2826 147.712 58.8596 148.207 57.961 148.578C57.4041 148.826 57.1876 149.167 57.1876 149.167C57.1564 149.135 57.095 149.29 57.0637 149.322C58.0849 149.477 57.0637 149.91 58.1474 149.322L60.9633 147.96C61.7066 147.496 61.9231 147.124 63.0057 147.155C66.5648 147.217 69.9688 145.855 73.3428 145.144C73.8685 145.052 74.0237 144.989 74.4567 144.896L74.3016 145.949L72.4143 145.856C72.0426 146.197 72.2591 146.197 71.8886 146.6C70.9288 147.621 68.2983 148.858 67.9892 151.396C67.1231 151.396 62.0472 151.087 61.6143 150.808C62.5429 149.632 64.7403 148.982 66.0095 147.837C65.9782 147.806 66.0708 147.342 65.2661 147.745L61.1813 149.787C60.717 150.096 60.1913 150.653 59.6344 150.84C59.5418 150.778 56.323 150.035 55.8901 149.942C54.7138 149.695 49.763 148.364 49.0195 147.9C48.4939 147.591 48.1836 147.404 47.5653 147.095L45.8945 146.507C46.0184 146.414 46.0184 146.414 46.2349 146.291C46.2662 146.291 46.3276 146.259 46.3588 146.259C47.5653 145.702 51.4348 144.835 52.8265 144.495C53.1982 144.402 53.5386 144.278 54.0029 144.154C54.5911 143.999 54.8076 143.969 55.0241 143.411L55.0187 143.412ZM72.1949 133.726C72.5353 134.654 71.638 135.707 71.4829 137.13C71.3903 137.903 71.4829 138.336 70.8333 138.801C69.6269 139.667 64.551 142.886 63.5299 142.824C62.3848 142.7 60.9306 141.927 60.3425 141.4C59.7543 140.843 58.2074 139.822 58.0523 139.048C57.9597 138.584 58.1762 137.408 58.3001 137.006C58.6405 135.768 58.6717 136.882 58.6717 135.304C58.6717 133.911 59.0434 132.921 59.415 131.652C60.3124 131.652 61.4574 132.209 62.4173 132.364L68.8548 133.417C71.2376 133.942 70.8659 133.478 72.1973 133.726L72.1949 133.726ZM60.1258 128.217C59.9405 127.505 60.3736 126.608 60.5276 125.988C60.9606 123.883 60.6202 123.482 61.6113 123.11L67.801 120.541C69.0387 120.076 70.9884 119.303 72.1961 119.303C72.2274 119.643 72.041 121.377 72.041 122.181C72.041 124.038 72.32 126.452 72.2888 128.308V131.187C68.6371 130.506 63.3759 128.371 60.1259 128.216L60.1258 128.217ZM61.3323 122.244C60.2798 122.399 61.1771 122.305 60.3111 122.708C60.3423 121.532 60.868 110.298 61.2084 109.122C61.2084 109.03 61.3323 108.843 61.3323 108.813C61.4562 108.318 61.1771 108.844 61.147 107.761C62.3233 107.884 64.427 108.967 69.5341 109.463C70.9583 109.586 69.8745 109.834 72.4439 109.834L72.6916 112.589C72.8769 114.353 73.7128 117.726 72.4126 118.345C71.9483 118.562 71.5153 118.562 71.051 118.686C68.7921 119.181 64.8302 120.883 62.5399 121.873C61.983 122.121 61.8591 122.152 61.3334 122.245L61.3323 122.244ZM60.0019 100.209C61.2709 99.9928 60.714 99.312 61.1783 98.2283C62.0142 98.2283 63.2832 98.6613 63.9941 98.8778L69.781 101.353C70.214 101.601 70.5857 101.601 70.8647 101.818C70.7408 102.189 71.0812 102.003 70.4317 102.251C69.4719 102.56 68.4819 102.189 67.8011 102.189C66.9038 102.22 65.7899 102.777 64.8303 102.963C60.838 103.675 61.9205 103.829 59.414 104.572C59.3213 103.272 59.5992 102.561 59.3526 101.013C58.9508 98.2897 59.0736 98.6915 59.8169 98.5374L60.0021 100.208L60.0019 100.209ZM63.3134 86.4068C64.3033 85.9425 65.1705 86.0664 66.2531 85.5407C67.089 85.1691 68.1716 84.6434 69.1314 84.5809C71.205 84.3644 71.2363 84.4257 72.1951 83.7148C71.8859 88.852 72.0399 95.2582 71.1114 100.241C70.2754 100.426 69.1616 99.9314 68.3882 99.5597C67.6761 99.1881 66.7475 98.9102 65.9741 98.5385C65.3547 98.2595 61.5175 96.9292 60.8681 96.8678C60.992 93.9895 60.559 94.639 60.6203 92.5663C60.6516 91.7304 60.8369 90.8643 60.8056 90.0909C60.8056 89.2862 60.6817 88.5741 60.713 87.7081L63.3123 86.4078L63.3134 86.4068ZM58.7957 83.2808C60.6215 83.033 63.1282 82.9716 65.1094 82.9091C66.1931 82.8779 67.0904 82.6613 68.2354 82.9091C68.8235 83.033 68.9787 83.2182 69.4731 83.2808C70.0613 83.3421 70.2778 83.0955 70.7733 83.2808C70.1238 83.7763 68.7621 83.7763 67.771 84.1167L62.3547 86.0977C59.8793 87.4906 60.7454 86.3142 60.0958 86.8098C59.7554 87.0888 59.8481 87.3053 59.6003 87.6457C59.4451 87.8935 59.0121 88.1714 58.8269 88.2953C58.703 86.5308 58.5177 85.0764 58.7956 83.2818L58.7957 83.2808ZM64.6762 67.5599C65.6974 66.9717 69.3805 66.1057 70.8034 65.9193C72.4127 65.6715 73.6505 64.9594 75.0119 64.3412C75.1358 64.3099 75.6927 64.032 75.6927 64.032H76.3423C76.3423 64.1559 74.609 71.9852 74.3613 72.9449C74.1447 73.9047 74.1447 74.4918 74.0209 75.4203C73.6805 77.4014 72.7206 80.9292 72.6592 82.1983C72.195 81.8892 72.4115 81.9506 72.1336 81.7966C71.8245 81.6113 71.8858 81.6727 71.5454 81.5175C70.6169 81.1158 71.7307 81.301 70.3077 81.2385C68.9461 81.1771 69.5644 80.7742 68.6671 80.5265C68.6671 80.5265 68.2028 80.4952 68.1102 80.4952L67.8311 79.7832C66.81 79.7519 63.9629 78.6068 63.0031 78.1425C62.0434 77.6782 59.7532 76.4405 59.0423 75.8524C58.9497 74.522 58.857 73.4383 58.857 72.0152C58.8883 70.4985 58.5479 70.5297 59.1974 68.9515C59.7856 68.9202 59.8782 69.3533 59.9095 69.2606C59.9407 69.2294 60.0021 69.3533 60.0334 69.3845C60.9932 68.7651 61.3336 68.5486 62.5088 68.2082C62.8492 68.7651 63.0657 69.879 63.1584 70.5296C63.2197 70.9314 63.3135 71.3343 63.4374 71.7673C63.6851 72.7272 63.376 72.5408 64.1807 72.572C64.8928 71.3957 63.097 68.1154 63.8403 67.8366C63.9954 68.2696 64.2733 69.5698 64.4285 70.1268C64.9541 72.2004 64.5211 71.9839 65.3258 72.0453C65.8514 71.4884 65.2331 72.7573 65.511 71.6736C65.7901 70.7763 64.9541 69.5687 64.6751 67.5576L64.6762 67.5599ZM78.4174 56.0776C82.5334 56.4794 83.6474 57.4705 87.8559 55.985C90.27 55.149 88.8158 55.8611 90.6718 54.6847C91.6004 54.0966 91.5691 54.5609 92.683 53.5709C92.7142 53.5397 92.8381 53.447 92.8682 53.4158C93.1774 53.1368 92.837 53.3845 93.2399 53.1066C93.6116 52.8276 94.3236 52.302 94.8493 52.2707C94.7566 52.9515 91.5378 56.1078 90.981 56.6344L89.0937 58.5529C87.3917 60.3174 86.0914 62.0195 84.576 63.9692L81.884 66.9089C80.5224 68.2705 78.5414 71.6132 77.3963 72.6958C75.9108 74.15 76.6229 74.15 74.7657 76.2549L74.7043 76.0072V75.852C74.7043 75.8208 74.6731 75.7906 74.6731 75.7281L75.1686 72.7884C75.7568 70.5295 76.0659 68.0227 76.6541 65.9804C76.8092 65.4235 76.9331 64.8967 77.0559 64.4023C77.6128 62.6691 77.5514 64.1233 77.6441 62.8856C76.4677 62.7003 75.2613 63.9693 74.6418 63.7516C74.7969 63.6278 75.1373 63.3499 75.3851 63.226C76.0346 62.947 75.6942 63.1947 76.2824 63.0407L78.1083 57.8107C78.2322 57.1913 78.2634 56.4491 78.4174 56.0774L78.4174 56.0776ZM63.0368 58.7082C63.1919 59.9459 64.2745 66.043 63.5011 66.5688C63.3459 66.5375 63.1919 66.754 63.0368 65.7027C62.5413 62.2987 62.1395 61.3076 61.4587 58.0276C61.1183 56.3568 59.385 50.569 59.385 49.7027L61.6439 50.5688C62.6339 50.9404 62.9129 50.9404 63.6863 51.4973C67.2455 54.1592 71.3303 54.1893 75.5389 55.0253C76.2822 55.1805 76.8079 55.5822 77.7052 55.7988C77.5501 56.6648 77.2097 57.3769 76.9318 58.1816C76.684 58.8624 76.2197 59.6358 75.9719 60.1927C75.9106 60.3479 75.6315 61.0588 75.6315 61.3378C75.6315 61.5231 76.5601 62.2664 73.8983 63.3802L70.4317 64.4014C68.8536 64.7106 69.5657 64.3088 66.7486 65.2061C66.099 65.4226 65.0778 65.9494 64.5823 65.8869L63.6537 58.0263C63.5298 56.7574 63.1894 55.6435 62.8803 54.4672C62.4785 53.013 62.5086 51.5575 61.7039 51.3723C61.2396 52.1458 61.6426 52.3935 61.8591 53.167C62.0142 53.6926 62.1682 54.4973 62.2921 55.0855C62.5399 56.1692 62.9115 57.5609 63.0354 58.706L63.0368 58.7082ZM49.3271 47.2885C49.0179 48.0619 49.7601 48.6501 50.0079 49.6099C49.3885 49.3934 49.6061 49.4246 49.1719 48.8052C48.8315 48.3409 47.5012 46.9179 47.3773 46.3298C49.0793 46.515 51.1842 47.63 53.0102 47.9391C54.8048 48.2181 57.3116 48.7751 58.7667 49.486L60.654 57.9972C61.49 60.9069 61.8917 63.784 62.4185 66.91C62.0469 67.2817 59.6641 67.9937 59.076 68.2404C58.8907 68.1165 58.5804 67.6522 58.3639 67.4669C57.6519 67.4669 58.0235 67.5283 57.4041 67.7459C57.4353 64.5585 55.7947 61.7114 55.0213 58.8017L55.2691 58.6778C56.0737 58.2447 54.7735 59.0182 55.5168 58.5539C55.7646 58.3686 55.5481 58.6153 55.7958 58.3061C55.7345 57.6566 54.1552 55.7994 53.2891 54.1587C52.3606 52.3328 50.4109 47.2881 49.3283 47.2881L49.3271 47.2885ZM57.2499 74.6468C58.2711 75.9771 57.6216 74.6155 58.395 76.6892C57.5591 76.7818 57.4977 76.4414 57.0948 75.9771L54.4955 72.7897C53.6908 71.6446 52.4531 71.2729 50.7812 68.8902L46.356 63.7217C45.9543 63.2574 45.7679 63.196 45.3962 62.8244C43.4777 60.9371 41.961 58.6158 40.1965 56.4495C36.885 52.4261 35.3685 48.9606 34.0993 47.3201C33.7277 46.7944 31.0671 43.3592 31.0356 42.9875L32.645 42.8022C33.3258 45.0924 36.2967 48.4965 37.721 50.5088L38.6496 51.7153C38.8973 51.9631 38.9587 51.9943 39.1752 52.2108L40.4129 53.7276C40.7221 54.0992 40.9386 54.2845 41.2489 54.7175L45.644 59.6069C47.2847 61.2777 48.0268 62.7329 48.9555 63.7544L52.1743 67.9629C52.8238 68.9529 53.3808 69.2319 53.9388 70.0366L55.6408 71.9864C56.1364 72.4507 56.5381 73.5031 57.0649 74.3379C57.0649 74.3692 57.0962 74.3993 57.1263 74.4306L57.2499 74.6468ZM55.9497 70.995C55.7644 70.7785 55.8258 70.7785 55.6093 70.5308L52.3593 66.8165C51.8024 66.043 51.5234 65.2384 50.2544 63.7842C49.9754 63.4438 49.635 63.1346 49.4185 62.7942L38.9273 50.7865C38.7108 50.5075 38.4943 50.0745 38.2153 49.7028L35.9251 46.8557C35.3369 46.051 35.059 45.5555 34.501 44.7821C33.3246 43.1727 33.1706 43.5131 32.8603 42.8323C33.7577 42.7709 36.5746 43.0801 37.378 43.2653C38.368 43.5131 38.1214 44.1013 40.4418 44.8434C42.7933 45.5868 41.6181 44.9986 43.2888 47.0722C43.7844 47.6917 43.4127 47.4439 44.1549 48.1861L46.4138 50.724C47.5589 52.2408 50.4373 56.1703 51.6135 57.2854C53.6872 59.204 52.5734 59.2352 54.3367 59.1113L55.7296 63.6916C55.8535 63.9394 56.0086 64.1559 56.1314 64.4963C56.4405 65.6101 56.3791 67.4672 56.9048 68.3646C57.7095 69.7574 57.2452 69.3545 57.7407 70.1905L58.0198 70.7161C58.1749 71.3969 58.205 73.0677 57.8646 73.7184L55.9461 70.9952L55.9497 70.995ZM29.9229 43.111L37.5669 54.4693C37.6907 54.6546 37.7521 54.7785 37.876 54.9649C38.155 55.3666 38.0613 55.1501 38.3403 55.4905L42.6114 60.9994C44.0043 62.8253 45.7063 64.1557 47.0991 65.9514L51.5243 71.3051C52.2977 72.0484 52.7006 72.2337 53.4116 73.2236C53.6281 73.5026 53.5354 73.4089 53.7832 73.6566C54.5879 74.4301 55.2687 75.8229 56.012 76.4111C56.445 76.7515 56.6928 76.9993 57.0957 77.3397C57.1884 79.3508 56.4149 81.7962 56.7241 83.622L57.9306 83.5606C57.8993 84.7983 57.8379 89.162 58.3949 89.8429C59.1683 89.6576 58.8279 89.1308 59.6326 88.7904C59.8491 89.7803 59.7877 92.1633 59.7565 93.2155C59.6951 93.9276 59.6326 94.6698 59.6013 95.3818C59.6013 96.1553 59.7565 96.9599 59.7252 97.7033L58.3636 98.2602C58.1158 99.0035 58.5489 100.983 58.6727 101.881C58.858 103.242 58.425 104.604 58.3937 105.966C59.2297 106.678 59.3223 106.275 59.4462 107.699L60.3435 107.791C60.4986 109.71 60.0957 112.557 59.9105 114.414C59.7553 116.271 59.2297 123.111 59.7252 124.441C59.973 125.122 60.0656 124.782 59.8178 125.772L58.704 130.012C58.425 130.94 58.6426 130.909 58.5801 131.776C58.5489 132.302 58.3323 132.581 58.2085 133.045C57.3111 132.952 56.1973 133.23 55.2987 133.509C52.4829 134.314 49.2642 134.097 46.5096 135.18C45.3645 135.613 43.8176 135.83 42.6413 136.387C40.5677 137.408 38.2462 137.253 35.523 139.698C34.9036 140.255 35.2139 140.131 34.8422 140.688C34.2228 141.554 33.7284 142.018 34.7184 143.04C39.3301 147.868 44.2506 146.32 47.3144 147.836C48.0878 148.208 48.7072 148.796 49.5733 149.043C50.5331 149.352 51.1514 149.322 52.2038 149.724C53.9684 150.373 55.8555 150.684 57.7441 151.148C60.7764 151.86 64.1504 151.797 67.3067 151.984C67.8949 152.045 68.2353 152.169 68.7922 152.231L73.7442 152.108C75.6013 151.922 78.2319 151.829 79.8713 151.519C82.5945 150.963 89.1248 150.622 91.0745 148.765C91.6939 148.146 92.3434 147.094 92.9316 146.29C94.108 144.649 94.1693 145.176 93.2106 143.319C92.4673 141.895 91.2921 141.493 89.6826 140.873C88.7228 140.502 87.8255 140.161 86.8969 139.821C85.8757 139.449 85.0398 139.201 84.2663 138.521C83.6168 137.964 83.8333 138.489 83.369 137.592C82.8735 136.632 82.1313 136.292 81.5431 135.426C80.2128 133.539 76.282 133.507 74.0846 132.95C74.0232 132.671 74.3011 132.362 74.425 131.991C75.4149 132.176 76.2821 132.764 77.4273 132.95C80.367 133.415 80.7698 132.795 83.8335 134.652C86.5255 136.262 89.559 137.19 92.5913 138.149C94.8201 138.83 95.9641 139.944 98.781 140.254C101.319 140.533 105.466 142.265 107.755 143.504C108.343 143.813 108.467 143.783 108.839 144.432C109.551 145.701 109.953 147.403 110.541 148.796C111.314 150.498 110.757 150.683 109.891 151.706C108.808 153.006 107.663 153.315 106.085 154.027C104.042 154.987 102.805 156.41 98.9049 157.06C93.8914 157.895 89.4663 159.257 84.3591 158.885C81.3569 158.669 79.5623 158.947 76.7463 159.164C73.8366 159.381 71.7329 158.917 68.9783 158.948C67.5854 158.979 66.2863 159.009 65.0174 159.009C63.7172 159.009 62.3255 159.257 61.0251 159.257C59.0754 159.257 55.2071 159.35 53.5666 158.948C49.6057 157.927 50.3791 158.175 46.3869 157.834C44.994 157.71 43.014 156.998 41.466 156.75C40.8164 156.627 40.2897 156.689 39.5475 156.534C37.8455 156.193 34.6581 155.389 33.1726 154.677C31.4081 153.811 28.9641 153.5 26.8289 152.912C21.2275 151.427 21.0109 152.108 16.0901 151.334C14.9762 151.149 13.8613 150.962 12.6861 150.685C9.99408 150.035 8.81777 150.035 6.24862 148.827C5.19617 148.332 2.0712 146.413 1.66834 145.299C0.430626 141.74 8.13605 139.141 10.4575 137.841C11.4474 137.284 12.3448 137.036 13.5212 136.757C15.8426 136.262 17.7612 135.457 20.0826 135.21C23.9198 134.777 27.5412 134.034 31.2243 133.941C33.8862 133.88 36.4543 134.034 39.0235 133.601C41.221 133.229 43.9443 132.951 45.9866 132.301C47.9677 131.651 49.6072 130.506 51.7121 129.918C52.8259 129.609 54.0335 129.516 55.1472 129.206C56.8805 128.71 56.7878 128.494 58.5823 129.206C57.9015 127.319 54.6515 128.834 52.2386 129.267C50.165 129.639 48.2778 130.877 46.2352 131.713C41.4383 133.694 32.5566 133.043 27.1092 133.694C25.809 133.849 24.7264 134.065 23.4575 134.313C20.5478 134.809 19.8058 134.498 16.2152 135.458C15.0389 135.767 14.0489 135.954 12.8726 136.263C11.3871 136.696 11.0155 136.82 9.77777 137.469C8.91171 137.902 8.01326 138.459 7.02331 138.831C6.4664 139.047 4.48537 140.007 4.14503 140.285C3.0312 141.09 2.69079 141.306 1.94748 142.235C1.23542 143.132 0.493252 143.689 0.863766 145.299C1.14278 146.568 2.00885 146.969 2.81354 147.465C3.6796 148.053 4.29902 148.61 5.35148 149.229C7.7968 150.622 9.06577 150.653 11.9129 151.117C13.058 151.302 14.048 151.736 15.2555 151.89C18.1026 152.262 20.8883 152.292 23.0235 152.602C24.1373 152.757 25.3137 153.222 26.3963 153.531C28.5013 154.15 31.0081 154.552 32.9578 155.418C37.2592 157.336 40.6329 157.12 43.1709 157.739C47.0703 158.699 46.9466 158.389 50.5369 158.853C51.8371 159.038 52.7657 159.441 53.9409 159.719C57.2209 160.493 65.9486 159.503 69.9721 159.595C72.8818 159.657 74.8303 159.936 77.7712 159.719C79.1015 159.627 80.3091 159.379 81.7321 159.348C86.6215 159.286 86.4675 160.091 93.3995 158.728C96.8961 158.047 100.363 157.707 103.55 156.253L106.366 154.767C108.904 153.313 109.337 153.807 111.194 151.177C112.122 149.908 111.937 149.568 111.194 148.33C110.606 147.277 110.451 146.349 110.018 145.204C109.553 144.028 109.274 143.563 108.13 142.945C107.17 142.419 106.304 142.295 105.159 141.615C101.6 139.51 99.7743 140.749 93.9874 137.994C92.2542 137.158 89.4697 136.88 86.3434 135.116C85.2296 134.496 81.5777 132.67 80.494 132.485C79.0699 132.237 78.2038 132.67 76.7497 132.083L74.9551 131.217L74.5533 131.156C74.3982 131.125 74.2129 131.095 74.1203 131.063H73.9651C73.9339 131.032 73.8725 131.032 73.8413 131.032L73.5935 130.971C73.1605 128.248 72.8201 122.15 73.1605 119.242C73.377 117.477 74.0578 119.211 73.7799 115.899C73.5634 113.454 73.1917 110.298 73.5321 107.852C73.7486 106.336 73.5634 105.314 73.223 104.046C72.9138 102.993 72.944 101.755 72.7274 101.446C72.5422 101.167 72.2018 101.198 71.9228 101.013C71.954 99.7442 72.2632 98.6304 72.3245 97.3615L72.7888 85.9418C72.7888 85.3848 72.7888 84.4875 72.8502 83.9607C72.9116 83.2799 73.1593 83.3413 73.3145 82.5065C73.531 81.4228 73.6861 80.3402 73.9339 79.1336C74.3357 77.339 74.6772 77.8033 75.512 76.7508C76.0076 76.1627 75.8524 76.2252 76.2241 75.4819C76.5332 74.8624 76.7497 75.1102 77.06 74.3055C77.5556 73.0366 77.3692 73.4395 78.762 72.0466C79.5355 71.2732 81.5165 67.8992 84.0232 65.4238C85.8803 63.5666 87.4272 61.3078 89.532 59.0175C90.2128 58.2742 90.5845 57.3768 91.7296 56.9126C91.6057 57.2217 91.3278 57.6559 91.1727 57.8411L83.6212 67.4663C81.4549 70.4371 81.3311 70.0042 79.9695 71.7677C79.5677 72.2632 79.1336 72.6963 78.7318 73.1918L77.2776 75.6985C77.0611 76.0702 76.9986 76.1003 76.7519 76.5032C76.3803 77.0601 76.1637 77.5556 75.8233 78.2052C75.6682 78.453 75.4216 78.8246 75.2977 79.0411C74.2765 81.0835 73.6571 80.7431 74.2765 81.7956C75.7932 81.2387 76.041 78.9485 76.7832 77.6796L78.6403 74.5847C79.6303 72.8515 80.7754 72.2633 81.6726 70.9944C82.3847 69.9732 83.2195 69.3237 83.9315 68.3025L84.9527 66.817C86.0978 65.6719 87.0878 63.7221 88.2641 62.5156L90.2753 60.0702C91.1726 58.9252 94.1125 54.9642 94.917 54.2834C95.5052 53.7577 95.9382 53.107 96.5577 52.6126C97.1146 52.1483 97.1458 52.4887 97.455 51.6227L96.2786 51.8704C96.8355 50.8492 102.622 48.2499 104.201 47.8782C107.885 46.9808 113.61 44.3502 118.344 44.1639C120.696 44.0712 123.977 43.6996 126.173 43.2978C128.092 42.9574 128.68 42.1215 128.959 40.1415C129.052 39.2755 129.516 38.0679 129.021 37.4496C127.937 37.4183 128.123 38.4094 127.968 40.4204C127.844 41.8133 127.38 42.3077 126.111 42.618C122.738 43.4226 118.652 43.2061 115.187 43.9483C111.968 44.6291 108.75 45.7429 105.531 46.7028C102.807 47.5074 99.3098 48.8378 96.8656 50.2619L94.0798 51.6235C93.5843 51.8713 93.1513 52.0565 92.8109 52.3356C92.5319 52.5833 92.0374 53.1715 91.697 53.388C91.2328 53.7284 90.985 53.6358 90.3667 54.0074C88.293 55.369 84.5798 56.4215 82.0107 55.8646C79.6893 55.369 77.7396 54.8746 75.6044 54.1938C73.4069 53.5443 70.6835 53.4204 68.5787 52.8936C66.4436 52.3679 64.9581 50.8824 62.9773 50.263C61.9873 49.9226 61.09 49.3032 59.3256 48.8088L57.0041 47.9115C55.426 47.3858 53.7241 47.2619 52.1458 46.859C51.4025 46.6737 51.0934 46.5186 50.5052 46.3021C48.2764 45.5287 45.8935 45.436 43.6346 44.878C42.3969 44.5688 43.0465 44.599 42.3344 44.1972C42.1179 44.1045 40.7563 44.1045 39.3635 43.3925C37.4763 42.4026 37.9707 42.2474 34.3813 42.0309C33.1123 41.9695 31.7507 42.1548 30.4204 42.2474C30.3892 42.2162 30.359 42.1235 30.359 42.1548L30.08 41.6291C29.1202 41.9695 30.2965 42.1247 29.0276 42.186C27.6347 42.2173 26.0253 41.6291 24.571 41.474C22.2194 41.195 18.5978 39.8959 16.6793 38.4417L14.6056 36.8636C12.811 34.9138 11.7273 32.4384 10.397 30.1482L9.06669 27.8267C8.57115 27.0533 8.20064 26.0935 7.73635 25.5678C5.41492 22.9986 4.98189 22.0087 3.68178 18.6972C3.21749 17.4595 3.37263 17.2118 4.14606 15.974C4.88938 14.7676 12.8112 12.3838 14.8235 11.9195C15.8447 11.6717 16.9898 11.7643 18.0424 11.4864C19.2187 11.1773 19.7131 10.867 20.9521 10.7431C22.0045 10.6505 23.057 10.434 23.9844 10.1862C25.9654 9.66055 27.1103 8.97972 29.6786 8.39158C34.2904 7.30787 39.7055 6.47307 44.1318 4.70844C46.8238 3.62472 49.4855 2.91381 52.2089 1.70615C53.9109 0.932723 55.9846 0.375809 58.1509 0.870209C59.3574 1.14923 59.9154 1.79878 60.9668 2.41709C61.2458 2.57223 61.3072 2.60236 61.6476 2.75749C65.3619 4.45949 69.6633 5.51195 73.6553 7.12121C76.162 8.11115 77.7402 7.27634 80.1542 7.55424C81.7635 7.77075 84.7659 8.39018 85.941 9.07098L90.3976 12.7541C90.4288 12.7541 90.8931 13.0019 91.0471 13.0945C92.3474 13.8378 93.152 14.7653 94.5137 15.2921L97.2057 16.1581C98.0416 16.3746 99.4032 16.3133 100.486 16.5298C101.29 16.715 101.043 16.8389 101.816 17.0554C103.673 17.5811 107.449 18.2318 108.934 19.0052C110.699 19.9338 110.76 20.3356 113.576 21.667L118.497 24.1737C120.354 24.9784 121.499 25.7206 123.046 26.9282C123.386 27.2072 123.696 27.4538 124.036 27.7329C125.274 28.6927 125.738 29.3422 126.295 30.8892C126.697 31.9416 127.131 32.3133 127.131 33.7989C127.1 35.9964 127.255 36.6147 126.265 38.5032C125.956 39.0913 125.739 39.4931 125.584 40.1125C126.822 39.9574 127.193 39.2766 127.595 38.1014C128.091 36.6471 128.215 32.9328 127.564 31.5099C127.162 30.6439 126.852 29.5914 126.419 28.8481C125.645 27.4865 123.696 26.434 122.427 25.3815C120.972 24.2364 119.177 23.617 117.506 22.8123C116.361 22.2867 115.308 21.2956 114.009 20.8938C113.143 20.6148 113.36 20.646 112.647 20.2744L110.977 19.2844C110.729 19.0992 110.636 19.0679 110.389 18.8827C108.037 17.3358 104.571 17.0568 101.877 16.1282C100.918 15.7878 99.8964 15.5088 98.8137 15.4474C96.9878 15.386 94.6977 14.4575 93.4285 13.4976L91.077 12.0434C89.2823 10.8369 87.5804 9.13369 86.961 8.70084C85.3203 7.58701 83.2467 7.49435 81.2667 6.93632C79.2555 6.34815 76.903 7.21534 74.3961 6.37941C73.251 6.00775 72.6941 5.79124 71.549 5.54347L63.317 2.57261C61.2121 1.58267 60.3462 0.685323 58.211 0.221037C53.9096 -0.707534 51.6496 1.58264 47.9364 2.44984C47.3483 2.60497 47.1005 2.66635 46.5436 2.91412L43.9442 3.96658C43.1396 4.30698 42.2735 4.67864 41.1585 4.98778L36.7334 6.00898C36.0838 6.13286 35.8361 6.34938 35.1865 6.47327C33.1441 6.87504 31.1631 7.2467 29.1519 7.83487C28.1307 8.14401 27.2646 8.33041 26.2736 8.63955C23.8596 9.41298 22.9936 9.84604 20.3931 10.1864C19.248 10.3416 18.3507 10.836 17.3294 10.9599C14.4196 11.3315 13.8628 11.3616 11.2322 12.2601C9.49896 12.8795 4.39278 14.3025 3.40307 15.6027C3.09393 16.0044 3.03141 16.346 2.8149 16.779C2.22673 17.8928 2.69102 18.4196 3.03142 19.5949C3.27919 20.4922 3.61959 21.3895 4.11513 22.1942C4.82719 23.2779 5.44548 24.6697 6.37405 25.5671C6.80708 25.9688 6.8997 26.2166 7.14747 26.6195L9.99456 31.2312C10.3037 31.8194 10.2736 32.0359 10.614 32.5616C11.3573 33.7681 12.0682 35.5324 13.1207 36.5224C13.4923 36.8316 13.3059 36.6776 13.6162 37.0481C14.4209 38.1318 16.5259 39.6474 17.8874 40.2044C24.6339 43.0202 22.9634 41.6586 26.4599 42.7111C28.1006 43.2066 28.3171 42.9901 29.9265 43.1128L29.9229 43.111Z" fill="#3A4345"/>
</svg>
