<svg width="152" height="130" viewBox="0 0 152 130" fill="none" xmlns="http://www.w3.org/2000/svg">
<path d="M61.0914 104.186C62.4061 104.186 62.4061 106.184 61.0914 106.184H38.6159C37.2521 106.184 36.1394 105.072 36.1394 103.708V3.2679C36.1394 1.90408 37.2521 0.791332 38.6159 0.791332H114.042C115.405 0.791332 116.518 1.90405 116.518 3.2679V103.708C116.518 105.071 115.406 106.184 114.042 106.184H91.0482C89.7335 106.184 89.7335 104.186 91.0482 104.186H114.042C114.302 104.186 114.519 103.968 114.519 103.708V3.2679C114.519 3.00674 114.302 2.79022 114.042 2.79022H38.6159C38.3548 2.79022 38.1383 3.00674 38.1383 3.2679V103.708C38.1383 103.969 38.3559 104.186 38.6159 104.186H61.0914ZM57.4351 28.417C56.1203 28.417 56.1203 26.4181 57.4351 26.4181H95.2237C96.5384 26.4181 96.5384 28.417 95.2237 28.417H57.4351ZM65.4251 19.9573C64.1103 19.9573 64.1103 17.9584 65.4251 17.9584H87.2319C88.5467 17.9584 88.5467 19.9573 87.2319 19.9573H65.4251ZM133.617 63.0087L134.344 62.05C135.003 61.1828 136.323 62.1839 135.665 63.0522L134.915 64.0411C134.266 64.896 134.189 64.8458 135.449 64.8569C142.497 64.9138 148.724 54.9909 146.68 48.5478C146.451 47.8257 146.493 47.9083 145.716 47.9351C139.217 48.1572 131.236 56.2354 132.689 62.7465C132.98 64.0523 132.941 63.8994 133.617 63.0099L133.617 63.0087ZM133.306 84.7307L135.826 82.9205C136.716 82.2799 137.68 83.637 136.794 84.2754L134.585 85.8613C133.65 86.5321 133.615 86.4484 134.881 86.6973C141.906 88.0779 149.879 80.8033 149.449 73.8101C149.385 72.7778 149.345 72.8838 148.282 72.6885C141.687 71.482 132.073 77.4085 132.417 84.2911C132.478 85.5143 132.451 85.3435 133.306 84.7308L133.306 84.7307ZM125.469 103.289L130.39 102.628C131.473 102.483 131.691 104.145 130.61 104.291L126.321 104.867C124.91 105.057 124.876 104.981 126.274 105.749C132.431 109.128 141.861 107.115 144.336 100.106C144.682 99.1247 144.737 99.2285 143.912 98.628C138.274 94.5209 128.004 95.9338 124.834 102.4C124.23 103.632 124.284 103.448 125.469 103.289L125.469 103.289ZM17.3062 64.343L16.3509 63.0841C15.6924 62.2169 17.0138 61.2147 17.6712 62.0819L18.5897 63.2917C19.0796 63.9379 19.0049 63.9546 19.2783 63.073C21.3922 56.2315 13.5563 48.3775 6.72462 47.9401C5.48354 47.8609 5.50254 47.7961 5.18556 49.0026C3.42999 55.7046 9.95671 66.1075 17.0973 65.0172C17.8964 64.8955 17.7558 64.9335 17.3071 64.3431L17.3062 64.343ZM17.7917 86.0842L15.4725 84.5138C14.5708 83.9023 15.5016 82.5306 16.4033 83.1411L18.871 84.8119C19.5484 85.2706 19.4949 85.3866 19.5607 84.4826C20.0841 77.3006 10.5373 71.372 3.76271 72.6992C2.62096 72.9224 2.55734 72.9737 2.54842 74.1925C2.49708 81.1491 11.2638 89.4548 17.7727 86.8945C18.7214 86.5217 18.5383 86.5898 17.7928 86.0843L17.7917 86.0842ZM27.1903 104.56L21.8389 103.841C20.7563 103.696 20.9773 102.05 22.0599 102.195L27.3824 102.909C27.9371 102.984 27.869 103.015 27.6202 102.445C24.7519 95.8744 13.5644 95.2661 8.1513 99.5038C7.06536 100.354 7.06647 100.352 7.79638 101.581C11.2284 107.355 23.293 110.087 27.3712 105.041C27.7641 104.555 27.7496 104.633 27.1916 104.558L27.1903 104.56ZM88.0189 113.677C87.347 112.554 89.0613 111.543 89.7332 112.667L95.4417 122.192C96.1437 123.364 96.3391 123.2 95.0467 123.378L90.8624 123.952C89.8568 124.091 90.0956 123.991 89.5532 124.866L86.8267 129.257L80.5475 119.454C79.8399 118.352 81.5185 117.275 82.2261 118.377L86.4235 124.93C86.8744 125.634 86.7282 125.633 87.1702 124.921L88.4369 122.881C88.9034 122.13 88.7025 122.237 89.572 122.118L91.8131 121.81C93.1177 121.613 92.8454 121.731 92.1155 120.512L88.0184 113.676L88.0189 113.677ZM63.1752 112.667C63.8471 111.544 65.5568 112.566 64.885 113.689L60.5781 120.874C60.0045 121.832 59.9208 121.648 61.029 121.8L63.1529 122.092C64.1574 122.23 63.9621 122.061 64.4911 122.913L65.596 124.693C66.1875 125.646 65.9955 125.691 66.5859 124.768L70.6808 118.375C71.3884 117.273 73.067 118.35 72.3594 119.452L66.8214 128.099C65.9352 129.481 66.2231 129.484 65.356 128.089L63.2622 124.716C62.7611 123.909 62.9397 124.073 61.9854 123.942L57.9186 123.384C56.6094 123.204 56.7344 123.41 57.4208 122.265L63.1742 112.665L63.1752 112.667ZM80.654 105.119C80.654 103.804 82.6529 103.804 82.6529 105.119C82.6529 108.721 79.7321 111.642 76.1295 111.642C74.8147 111.642 74.8147 109.643 76.1295 109.643C78.6284 109.643 80.6541 107.618 80.6541 105.119L80.654 105.119ZM83.7166 97.5315C87.884 101.699 87.884 108.538 83.7166 112.706C79.5492 116.873 72.71 116.873 68.5426 112.706C64.3752 108.538 64.3752 101.699 68.5426 97.5315C72.71 93.3641 79.5492 93.3641 83.7166 97.5315ZM82.3036 98.9445C78.9131 95.5539 73.3459 95.5539 69.9554 98.9445C66.5648 102.335 66.5648 107.902 69.9554 111.293C73.3459 114.683 78.9131 114.683 82.3036 111.293C85.6942 107.902 85.6942 102.335 82.3036 98.9445ZM128.655 3.24162C124.191 6.19248 123.751 16.4336 128.804 18.6199C129.211 18.7962 129.197 18.784 129.615 18.6288C134.94 16.6422 134.257 6.61769 129.889 3.31312C129.272 2.84549 129.298 2.81758 128.655 3.24169L128.655 3.24162ZM130.077 1.07756C136.838 4.70813 137.571 18.5016 129.748 20.6781C129.103 20.8578 129.124 20.8534 128.483 20.6324C121.075 18.0788 121.679 4.04209 128.605 1.00952C129.396 0.663544 129.317 0.668001 130.077 1.07648V1.07756ZM138.272 25.2293C132.357 27.054 127.374 36.543 131.835 41.4704C132.165 41.8354 132.124 41.8253 132.617 41.8354C139.219 41.9626 142.578 30.7616 139.073 25.5619C138.74 25.0697 138.818 25.0608 138.273 25.2293L138.272 25.2293ZM139.987 23.5049C145.742 29.8809 140.965 44.7461 131.925 43.7918C131.189 43.7137 131.243 43.6969 130.695 43.1601C124.418 37.0004 130.686 24.5975 138.723 23.0687C139.529 22.9158 139.411 22.8678 139.987 23.505L139.987 23.5049ZM148.216 46.9681C151.967 55.3944 142.832 69.0049 133.203 66.5618C132.007 66.2582 132.036 66.3062 131.47 65.218C127.263 57.1221 137.752 45.4246 146.629 45.9615C147.815 46.0329 147.748 45.9191 148.216 46.9682L148.216 46.9681ZM151.345 72.7461C152.8 82.1769 141.234 92.0061 132.106 87.8855C131.013 87.3922 131.064 87.4927 130.746 86.352C128.207 77.2537 140.734 68.6535 149.406 70.9012C151.057 71.3286 151.109 71.2137 151.346 72.746L151.345 72.7461ZM145.659 97.4547C146.92 98.4859 146.912 98.2984 146.514 99.8174C143.838 110.009 129.539 112.37 122.456 105.362C122.021 104.932 122.03 104.82 122.135 104.218C123.904 94.1523 138.249 91.3954 145.659 97.4545L145.659 97.4547ZM23.0673 0.868932C30.3553 3.58656 31.0907 18.2138 23.3954 20.6815C22.8697 20.85 22.8965 20.8456 22.3619 20.7027C14.2759 18.5487 15.219 4.22842 22.2983 0.900138C22.7358 0.694781 22.6141 0.70036 23.0672 0.868886L23.0673 0.868932ZM22.382 3.13568C17.8966 6.17796 16.9377 16.3142 22.2403 18.5608C22.7938 18.7952 22.8195 18.8131 23.3586 18.5564C28.3574 16.1747 27.7591 5.84207 23.1577 3.11093C22.7336 2.85869 22.7882 2.85981 22.382 3.13548L22.382 3.13568ZM14.1097 23.224C21.698 25.2619 27.3877 36.82 21.728 42.8868C20.911 43.7629 20.9144 43.7797 19.7269 43.8299C11.2269 44.1837 6.74259 30.455 11.776 23.9762C12.7001 22.7853 12.6488 22.8322 14.1097 23.2251L14.1097 23.224ZM12.7615 26.0911C9.85977 31.3791 13.026 41.5542 19.1712 41.8311C20.0049 41.869 20.0194 41.8557 20.544 41.2117C24.4557 36.4082 20.0574 27.7151 14.5417 25.4651C13.3743 24.9885 13.3776 24.9684 12.7615 26.0912L12.7615 26.0911ZM5.41005 45.9582C14.6289 45.3533 25.2583 56.7017 20.4358 65.4282C20.0027 66.2117 20.0619 66.1648 19.2282 66.4941C9.75274 70.2441 0.0104495 55.9807 3.71245 47.1872C4.22474 45.9696 4.11311 46.0433 5.40999 45.9584L5.41005 45.9582ZM2.33976 70.984C11.1646 68.359 23.7818 76.8914 21.2672 86.3623C21.0484 87.187 21.1176 87.1893 20.4692 87.6681C12.2952 93.7049 -0.83995 82.5063 0.654335 72.9069C0.874201 71.4906 0.967966 71.3924 2.34071 70.9839L2.33976 70.984ZM6.07405 98.6848C12.6701 92.3511 27.7515 93.7385 29.9969 103.26C30.1967 104.107 30.2101 104.058 29.8373 104.858C26.0216 113.039 9.02817 110.024 5.48588 101.395C4.82963 99.7954 4.84637 99.8635 6.07405 98.6849L6.07405 98.6848Z" fill="#343345"/>
</svg>
