<svg width="121" height="121" viewBox="0 0 121 121" fill="none" xmlns="http://www.w3.org/2000/svg">
<path d="M11.7746 0.703205C7.6817 0.703205 4.32917 3.9684 4.32917 7.95406C4.32917 8.97701 4.55025 9.94999 4.94843 10.8349V51.9491H4.05558C1.93157 51.9491 0.174011 53.6607 0.174011 55.7292V64.9453C0.174011 67.0138 1.9316 68.7291 4.05558 68.7291H4.90078C4.81406 69.3381 4.51725 70.2647 3.40581 71.4506C1.65432 73.3204 1.11692 75.9621 1.63478 78.315C1.89371 79.4914 2.44333 80.6262 3.38627 81.4922C4.32796 82.3582 5.67759 82.8886 7.16903 82.8649C8.56754 82.8387 9.75471 82.4379 10.5925 81.742C11.4304 81.0461 11.8591 80.1386 12.0558 79.3405C12.4491 77.7442 12.0631 76.3359 12.0631 76.3359V76.3347C11.9654 75.9362 11.7089 75.5924 11.3498 75.3772C10.992 75.1631 10.5596 75.0964 10.1504 75.1928C9.30031 75.3902 8.77514 76.2229 8.97788 77.0508C8.97788 77.0508 9.14643 77.9203 8.97422 78.6197C8.8875 78.9693 8.75314 79.2132 8.53697 79.3928C8.32078 79.5724 7.96171 79.7651 7.11404 79.7794C6.35921 79.7925 5.93662 79.5891 5.56532 79.2465C5.1928 78.9039 4.885 78.3556 4.73479 77.6681C4.43188 76.2919 4.86059 74.4814 5.75099 73.5311C7.26797 71.9122 7.88475 70.3219 8.04966 69.1088C8.06676 68.9791 8.07653 68.853 8.08386 68.7293H9.80724C11.9313 68.7293 13.6926 67.0153 13.6926 64.9456V55.7294C13.6926 53.661 11.9325 51.9493 9.80724 51.9493H8.11929V14.2609C8.82037 14.6486 9.59106 14.927 10.407 15.0768L43.4225 63.5021V79.2888H39.9099H39.9111C39.4909 79.2888 39.0879 79.4518 38.7911 79.742C38.4943 80.0323 38.327 80.4248 38.3282 80.8339V91.551C38.327 91.9613 38.4943 92.3539 38.7911 92.6441C39.0879 92.9331 39.491 93.0961 39.9111 93.0973H58.1905V97.9763H40.2322C33.7967 97.9763 28.5666 103.072 28.5666 109.34C28.5666 115.608 33.7955 120.701 40.2322 120.701H108.508C114.944 120.701 120.174 115.609 120.174 109.34C120.174 103.073 114.945 97.9763 108.508 97.9763H90.7224V93.0973H108.701H108.7C109.121 93.0973 109.526 92.9343 109.823 92.6453C110.121 92.355 110.288 91.9613 110.287 91.5509V71.8818C110.287 71.4714 110.119 71.0789 109.821 70.7899C109.524 70.5008 109.12 70.3391 108.7 70.3391H105.424L80.9034 34.4654C81.083 34.0848 81.1758 33.6697 81.177 33.2498C81.1758 31.6333 79.831 30.3237 78.1711 30.3225C77.5885 30.3225 77.0206 30.4867 76.532 30.7959L17.9614 3.92831C16.6215 1.9859 14.3462 0.701172 11.7788 0.701172L11.7746 0.703205ZM11.7746 3.79118C14.1539 3.79118 16.0496 5.63724 16.0496 7.95436C16.0496 10.2715 14.154 12.1139 11.7746 12.1139C10.2161 12.1139 8.86527 11.3229 8.11913 10.1251V10.0823H8.0947C7.7173 9.46137 7.4999 8.7358 7.4999 7.95432C7.4999 5.63723 9.3955 3.79115 11.7748 3.79115L11.7746 3.79118ZM19.2167 7.92087L75.1827 33.5896V33.5885C75.2902 34.4758 75.8056 35.2668 76.5849 35.7366V40.479H57.464C56.8998 40.479 56.377 40.7728 56.0936 41.2486L54.7696 43.4836L19.212 8.22199C19.2157 8.13278 19.2157 8.04594 19.2157 7.95555V7.92224L19.2167 7.92087ZM18.1944 11.6105L18.8136 12.2267L18.3764 15.6L14.6696 14.627C16.1487 14.0144 17.386 12.9487 18.1956 11.6093L18.1944 11.6105ZM21.641 15.0313L23.6001 16.9726L21.4627 16.4135L21.641 15.0313ZM16.3915 18.2786L17.9744 18.6949L17.7655 20.2971L16.3915 18.2786ZM21.0632 19.5037L24.9923 20.5362L24.7626 22.8544L20.7516 21.9124L21.0632 19.5037ZM28.0875 21.4223L31.0041 24.3199L27.8711 23.5836L28.0875 21.4223ZM21.0901 25.1693L24.4551 25.9591L24.096 29.5799L21.0901 25.1693ZM27.5634 26.6882L32.2864 27.7968L31.8418 31.1905L27.181 30.5505L27.5634 26.6882ZM35.3681 28.6461L38.9076 32.1598L34.9785 31.6197L35.3681 28.6461ZM26.8527 33.6217L31.4428 34.2509L30.7723 39.3702L26.8527 33.6217ZM34.578 34.6803L42.1532 35.7199L42.4952 43.0566L33.6033 42.1312L34.578 34.6803ZM79.7504 38.3511L101.613 70.3393H80.73V42.0204C80.7227 41.4019 80.338 40.8476 79.7517 40.6109L79.7504 38.3511ZM45.4623 38.6604L50.7668 43.9192L45.6808 43.3898L45.4623 38.6604ZM58.3796 43.5656L77.5592 43.5668V70.3406H74.9808V47.4042C74.9808 46.9938 74.8135 46.6013 74.5155 46.3123C74.2175 46.0232 73.8144 45.8614 73.3942 45.8614H61.0069C60.4414 45.8614 59.9199 46.1552 59.6353 46.631L49.2938 64.0733C49.1546 64.3076 49.0813 64.5741 49.0825 64.8453V79.2903H46.5933V63.45L58.3796 43.5656ZM34.8604 45.3677L42.6369 46.1765L43.1634 57.5467L34.8604 45.3677ZM45.8247 46.5096L52.5582 47.209L46.3437 57.6906L45.8247 46.5096ZM61.9191 48.948H71.81V70.3394H70.4897L70.4909 70.3406C70.0695 70.3394 69.6665 70.5012 69.3684 70.7902L60.6404 79.2901H52.2519V65.2592L61.9191 48.948ZM4.05511 55.0332H9.8043C10.2281 55.0332 10.5188 55.3163 10.5188 55.729V64.9452C10.5188 65.3579 10.2269 65.641 9.8043 65.641H4.05511C3.63128 65.641 3.34427 65.3567 3.34427 64.9452V55.729C3.34427 55.3163 3.63253 55.0332 4.05511 55.0332ZM71.1462 73.4246H107.113V90.0107H41.4919V82.3767H61.2969C61.7158 82.3767 62.1189 82.2162 62.4157 81.9271L71.1462 73.4246ZM94.1279 76.5315C93.7078 76.5315 93.3047 76.6933 93.0067 76.9823C92.7087 77.2725 92.5414 77.6651 92.5414 78.0742V84.3927V84.3915C92.5414 84.8019 92.7087 85.1944 93.0067 85.4834C93.3047 85.7725 93.7078 85.9342 94.1279 85.9342C95.0025 85.933 95.7109 85.2432 95.7121 84.3915V78.0742C95.7109 77.2226 95.0025 76.5327 94.1279 76.5315V76.5315ZM99.7536 76.5315C98.8791 76.5327 98.1707 77.2225 98.1707 78.0742V84.3927V84.3915C98.1707 85.2432 98.8791 85.933 99.7536 85.9342C100.174 85.9342 100.578 85.7725 100.875 85.4834C101.173 85.1944 101.34 84.8018 101.34 84.3915V78.0742C101.34 77.6651 101.173 77.2726 100.875 76.9823C100.578 76.6933 100.174 76.5315 99.7536 76.5315V76.5315ZM61.3569 93.0971H87.5461V97.9762L61.3582 97.9774L61.3569 93.0971ZM40.2293 101.064H108.505C113.241 101.064 117.004 104.729 117.004 109.341C117.004 113.952 113.241 117.613 108.505 117.613H40.2293C35.4938 117.613 31.7308 113.951 31.7308 109.341C31.7308 104.729 35.4938 101.064 40.2293 101.064V101.064ZM42.1005 102.803C38.4119 102.803 35.3877 105.748 35.3877 109.341C35.3877 112.933 38.4118 115.876 42.1005 115.876C45.7892 115.876 48.8109 112.933 48.8109 109.341C48.8109 105.748 45.7891 102.803 42.1005 102.803ZM74.3688 102.803C70.6801 102.803 67.6559 105.748 67.6559 109.341C67.6559 112.933 70.6801 115.876 74.3688 115.876C78.0574 115.876 81.0816 112.933 81.0816 109.341C81.0816 105.748 78.0574 102.803 74.3688 102.803ZM106.637 102.803C102.948 102.803 99.9242 105.748 99.9242 109.341C99.9242 112.933 102.948 115.876 106.637 115.876C110.326 115.876 113.35 112.933 113.35 109.341C113.35 105.748 110.326 102.803 106.637 102.803ZM42.1036 105.89C44.0786 105.89 45.6469 107.416 45.6469 109.341C45.6469 111.264 44.0798 112.791 42.1036 112.791C40.1286 112.791 38.5566 111.265 38.5566 109.341C38.5566 107.416 40.1273 105.89 42.1036 105.89ZM74.3719 105.89C76.3469 105.89 77.9151 107.416 77.9151 109.341C77.9151 111.264 76.3481 112.791 74.3719 112.791C72.3969 112.791 70.8286 111.265 70.8286 109.341C70.8286 107.416 72.3957 105.89 74.3719 105.89ZM106.64 105.89C108.615 105.89 110.183 107.416 110.183 109.341C110.183 111.264 108.616 112.791 106.64 112.791C104.665 112.791 103.097 111.265 103.097 109.341C103.097 107.416 104.664 105.89 106.64 105.89Z" fill="#343345"/>
</svg>
