<svg width="128" height="154" viewBox="0 0 128 154" fill="none" xmlns="http://www.w3.org/2000/svg">
<path d="M64.0086 0.193359L0.088623 12.5348V58.5148C0.088623 86.3362 8.7572 106.658 19.6801 121.163L19.6812 121.164C19.7001 121.192 19.7213 121.22 19.7426 121.247C20.1086 121.729 20.4769 122.204 20.8464 122.673C20.8519 122.686 20.8642 122.691 20.8709 122.698C21.2113 123.132 21.5573 123.561 21.9022 123.983C22.0484 124.148 22.1823 124.327 22.3241 124.498C22.4066 124.602 22.5104 124.719 22.6008 124.829C22.8084 125.072 23.0082 125.315 23.2124 125.554C23.2749 125.616 23.3374 125.7 23.3988 125.769C26.1365 128.964 28.9637 131.831 31.7917 134.392C33.8118 136.221 35.832 137.898 37.8217 139.43H37.8206C37.8284 139.436 37.8362 139.443 37.8451 139.448C38.0315 139.594 38.2313 139.745 38.4255 139.891C38.4299 139.893 38.431 139.897 38.4377 139.903C38.9176 140.267 39.3942 140.622 39.8697 140.97C39.8875 140.983 39.9121 140.995 39.9322 141.013C40.1185 141.159 40.3105 141.287 40.498 141.422C40.825 141.658 41.1487 141.888 41.4735 142.114C41.5985 142.197 41.7034 142.281 41.8183 142.355C42.1342 142.576 42.45 142.794 42.7636 143.006C42.8674 143.069 42.9712 143.152 43.075 143.217C43.3306 143.383 43.5862 143.56 43.8395 143.726C43.9645 143.809 44.0895 143.892 44.2112 143.972C44.4913 144.158 44.7725 144.335 45.0494 144.515C45.1744 144.598 45.2994 144.681 45.421 144.752C45.7011 144.938 45.979 145.103 46.2569 145.275C46.6498 145.518 47.0382 145.755 47.4232 145.988C47.4656 146.006 47.4857 146.031 47.527 146.051C47.9534 146.306 48.373 146.553 48.7871 146.795C48.8496 146.838 48.9121 146.878 48.9735 146.899C49.3061 147.085 49.6364 147.28 49.9612 147.462C50.1074 147.544 50.2413 147.608 50.3808 147.695C50.6286 147.841 50.8742 147.967 51.1163 148.1C51.2826 148.182 51.43 148.267 51.5862 148.354C51.8005 148.479 52.0125 148.583 52.2224 148.694C52.3887 148.776 52.5594 148.88 52.7257 148.958C52.9121 149.062 53.1108 149.166 53.3016 149.255C53.4679 149.338 53.6364 149.422 53.8005 149.511C53.9668 149.593 54.1453 149.677 54.3161 149.768C54.4824 149.851 54.6677 149.935 54.8384 150.028C54.9846 150.091 55.1085 150.153 55.2458 150.215C55.4679 150.319 55.6922 150.43 55.9087 150.533C55.9266 150.539 55.9511 150.551 55.9712 150.557C56.3451 150.744 56.709 150.902 57.0605 151.065C57.1431 151.108 57.2067 151.128 57.2904 151.169C57.3027 151.175 57.315 151.181 57.3328 151.187C57.3953 151.212 57.4578 151.249 57.5192 151.27C57.7268 151.352 57.9221 151.456 58.1208 151.535C58.2034 151.578 58.3072 151.618 58.3909 151.66C58.5773 151.743 58.7447 151.806 58.9143 151.887C58.9768 151.911 59.0393 151.929 59.0806 151.969C59.123 151.987 59.1632 152.012 59.2056 152.012C59.248 152.036 59.3094 152.054 59.3518 152.074C59.4556 152.117 59.5382 152.157 59.6431 152.199C59.6855 152.217 59.7257 152.242 59.7681 152.242C59.9143 152.304 60.0717 152.367 60.2145 152.428C60.3183 152.47 60.4009 152.511 60.4913 152.532C60.6576 152.594 60.8094 152.657 60.9589 152.718C61.0839 152.761 61.1944 152.801 61.3083 152.864C61.4333 152.907 61.5371 152.947 61.6453 152.989C61.7491 153.032 61.8529 153.072 61.9366 153.093C61.979 153.111 62.0192 153.118 62.0616 153.136C62.7335 153.383 63.1465 153.524 63.3652 153.594C63.4277 153.619 63.4478 153.619 63.469 153.637C63.4935 153.642 63.5728 153.661 63.5728 153.661L63.5706 153.659C63.5717 153.66 63.5739 153.66 63.5761 153.661L64.0248 153.807L64.4734 153.661C64.4746 153.66 64.4768 153.66 64.479 153.659L64.5036 153.647C64.5214 153.641 64.5661 153.622 64.6699 153.584C64.8853 153.522 65.296 153.373 65.9522 153.131C65.9947 153.113 66.0348 153.089 66.0984 153.069C66.2022 153.026 66.2848 152.986 66.3976 152.965C66.5014 152.922 66.6052 152.882 66.7134 152.84C66.8384 152.797 66.9467 152.757 67.0695 152.694C67.2157 152.631 67.3663 152.569 67.5203 152.507C67.6241 152.465 67.7067 152.425 67.8038 152.403C67.9288 152.341 68.0717 152.3 68.209 152.238C68.2715 152.214 68.334 152.176 68.3954 152.156C68.4779 152.113 68.5817 152.073 68.6654 152.052C68.69 152.04 68.7279 152.027 68.748 152.01C68.7904 151.992 68.8518 151.967 68.8942 151.947C68.9768 151.905 69.0605 151.885 69.1375 151.843C69.3038 151.781 69.4724 151.697 69.6465 151.622C69.6889 151.61 69.709 151.598 69.7502 151.58C69.8127 151.555 69.8965 151.517 69.9578 151.497C70.1241 151.415 70.3049 151.351 70.4869 151.262C70.5695 151.219 70.6732 151.179 70.767 151.137C70.8295 151.112 70.892 151.074 70.9534 151.054C71.5304 150.79 72.1386 150.506 72.7748 150.198C72.921 150.136 73.0438 150.073 73.1822 150.012C73.3686 149.929 73.5415 149.825 73.7224 149.743C73.8886 149.66 74.0449 149.576 74.209 149.499C74.3752 149.417 74.556 149.333 74.7313 149.234C74.9176 149.13 75.0973 149.047 75.2837 148.949C75.45 148.867 75.6353 148.763 75.8127 148.67C76.0203 148.566 76.2123 148.458 76.4154 148.348C76.5817 148.265 76.748 148.161 76.9165 148.078C77.1409 147.953 77.3697 147.828 77.5985 147.701C77.7648 147.619 77.9143 147.535 78.0773 147.436C78.3574 147.268 78.6442 147.113 78.9322 146.949C79.036 146.887 79.1476 146.824 79.2592 146.763C79.6643 146.527 80.0739 146.287 80.488 146.037C80.5505 145.995 80.6342 145.955 80.7034 145.912C81.0482 145.705 81.3954 145.493 81.7469 145.274C82.0438 145.088 82.3418 144.903 82.6431 144.713C82.7257 144.65 82.8295 144.588 82.9132 144.546C83.2413 144.335 83.5717 144.124 83.9043 143.906C83.9668 143.863 84.0293 143.823 84.0907 143.781C84.4032 143.573 84.7168 143.367 85.0304 143.155C85.0929 143.112 85.1554 143.072 85.2168 143.03C85.5616 142.794 85.9088 142.556 86.2581 142.314C86.3407 142.252 86.4244 142.21 86.4991 142.148C86.8485 141.904 87.2 141.654 87.5527 141.399C87.6777 141.295 87.815 141.213 87.9456 141.114C88.0282 141.052 88.1119 140.989 88.1933 140.928C88.3395 140.824 88.488 140.709 88.6364 140.601C88.719 140.539 88.8038 140.476 88.8965 140.415C89.1074 140.248 89.3184 140.099 89.5304 139.939C89.6554 139.835 89.7838 139.753 89.911 139.648C89.9936 139.585 90.0773 139.523 90.1666 139.462H90.1654C90.1666 139.459 90.1677 139.458 90.1688 139.457C92.1643 137.921 94.1911 136.239 96.2179 134.403C99.0662 131.823 101.915 128.933 104.67 125.71C104.688 125.686 104.712 125.668 104.732 125.648C104.995 125.34 105.256 125.031 105.516 124.718C105.558 124.676 105.599 124.614 105.641 124.572C105.891 124.271 106.138 123.969 106.385 123.661C106.552 123.454 106.72 123.241 106.889 123.032C106.992 122.907 107.101 122.766 107.207 122.632C107.414 122.374 107.61 122.114 107.809 121.854C107.834 121.812 107.872 121.792 107.892 121.75C108.017 121.585 108.143 121.425 108.268 121.26H108.269C108.284 121.234 108.298 121.206 108.312 121.178C119.24 106.671 127.914 86.3465 127.914 58.515V12.535L64.0086 0.193359ZM64.0086 3.32393L124.854 15.0716V58.5145C124.854 83.3459 117.857 101.872 108.586 115.566V113.472C108.586 111.942 108.367 110.462 107.962 109.061C109.313 106.819 110.598 104.451 111.79 101.948C114.416 96.4342 116.603 90.2756 118.131 83.4176C119.659 76.5605 120.529 69.0036 120.529 60.6956V19.9956L64.0066 9.0759L7.48374 19.9956V60.6956C7.48374 69.0036 8.35428 76.5593 9.88328 83.4176C11.4112 90.2748 13.5987 96.4333 16.2236 101.948C17.4144 104.45 18.699 106.819 20.0516 109.061C19.6464 110.461 19.4277 111.941 19.4277 113.472V115.566C10.1565 101.872 3.15882 83.3459 3.15882 58.5145V15.0716L64.0086 3.32393ZM64.0086 12.2068L117.457 22.5339V60.6968C117.457 68.7905 116.611 76.1188 115.132 82.7505C113.655 89.3822 111.544 95.3174 109.015 100.628C108.205 102.33 107.348 103.969 106.458 105.546C103.722 100.831 98.6201 97.6599 92.7764 97.6599H71.6681L71.667 97.6588C71.1268 97.6577 70.6246 97.9423 70.3478 98.4066C69.0129 100.641 66.6089 102.008 64.0075 102.013C61.4048 102.008 58.9998 100.643 57.6638 98.4066C57.3859 97.9434 56.8859 97.6588 56.3457 97.6588H35.2397C29.396 97.6588 24.2934 100.83 21.5565 105.545C20.6648 103.969 19.8099 102.331 18.9996 100.627C16.4706 95.3174 14.3625 89.3811 12.8836 82.7494C11.4059 76.1177 10.5577 68.7897 10.5577 60.6957V22.5328L64.0086 12.2068ZM64.0086 21.5796C60.7621 21.5796 58.1158 24.227 58.0232 27.4668C46.0958 30.1788 37.2398 40.8428 37.2398 53.6085V57.5559C35.5043 58.2814 34.2721 60.0035 34.2721 61.9891V64.3652C34.2721 66.9991 36.4395 69.1678 39.0735 69.1678H40.2085V72.9938C40.2085 86.1555 50.8503 96.8006 64.0088 96.8006C77.1674 96.8006 87.808 86.1555 87.808 72.9938V69.1678H88.943C91.577 69.1678 93.7445 66.9993 93.7445 64.3652V61.9891C93.7445 60.0036 92.5112 58.2825 90.7768 57.5559V53.6085C90.7768 40.8416 81.9208 30.1776 69.9933 27.4656C69.9107 24.2268 67.2556 21.5785 64.009 21.5785L64.0086 21.5796ZM64.0086 24.6522C65.6381 24.6522 66.9238 25.9457 66.9238 27.6399V37.9894C66.4796 37.8432 66.0175 37.7148 65.5454 37.6322V34.7082C65.5521 34.293 65.3892 33.8935 65.0957 33.5988C64.8021 33.3053 64.4015 33.1435 63.9863 33.1491C63.1381 33.1625 62.4606 33.86 62.4729 34.7082V37.6322C61.9997 37.7148 61.5376 37.8398 61.0923 37.9894V27.6399C61.0923 25.9457 62.3792 24.6522 64.0086 24.6522H64.0086ZM69.9975 30.7214C72.9483 31.4881 75.6726 32.8028 78.0578 34.5485V42.3745H78.0567C78.0477 42.7886 78.2051 43.1881 78.4941 43.4839C78.7832 43.7796 79.1794 43.947 79.5935 43.947C80.0064 43.947 80.4026 43.7796 80.6917 43.4839C80.9808 43.1881 81.1393 42.7886 81.1292 42.3745V37.2328C85.2029 41.4628 87.7041 47.2128 87.7041 53.6099V57.1891H76.4752V57.188C76.0634 57.1813 75.6661 57.3397 75.3714 57.6288C75.0779 57.9179 74.9127 58.313 74.9127 58.7248C74.9127 59.1366 75.0779 59.5317 75.3714 59.8208C75.666 60.1098 76.0634 60.2683 76.4752 60.2616H88.9429C89.9262 60.2616 90.6706 61.006 90.6706 61.9915V64.3676C90.6706 65.3531 89.9262 66.0976 88.9429 66.0976H39.0743C38.0911 66.0976 37.3467 65.3531 37.3467 64.3676V61.9915C37.3467 61.006 38.0911 60.2616 39.0743 60.2616H51.5398H51.5387C51.9516 60.2683 52.3489 60.1098 52.6425 59.8208C52.936 59.5317 53.1023 59.1366 53.1023 58.7248C53.1023 58.313 52.936 57.9179 52.6425 57.6288C52.3489 57.3398 51.9516 57.1813 51.5387 57.188H40.3098V53.6088C40.3098 47.2114 42.8109 41.4614 46.8847 37.2317V42.3734L46.8858 42.3756C46.8802 42.7863 47.0398 43.1825 47.3289 43.475C47.6168 43.7674 48.0108 43.9314 48.4215 43.9314C48.8333 43.9314 49.2273 43.7674 49.5152 43.475C49.8043 43.1826 49.9639 42.7863 49.9583 42.3756V34.5508C52.3423 32.8041 55.0677 31.4928 58.0175 30.7248V39.8096C56.196 41.4514 55.0486 43.8273 55.0486 46.4591C55.0486 51.3888 59.0777 55.4188 64.0063 55.4188C68.9349 55.4188 72.9629 51.3888 72.9629 46.4591C72.9629 43.8274 71.8156 41.4525 69.994 39.8096L69.9975 30.7214ZM64.0075 40.5696C65.0432 40.573 66.0533 40.8464 66.9406 41.362C67.1482 41.487 67.3435 41.612 67.5355 41.7571C67.5891 41.7962 67.6449 41.8308 67.7029 41.862C69.0411 42.939 69.8938 44.5897 69.8938 46.4558C69.8938 49.7258 67.2777 52.3429 64.0098 52.3429C60.7418 52.3429 58.1246 49.7257 58.1246 46.4558C58.1246 44.5874 58.9806 42.9323 60.3233 41.8563L60.3222 41.8552C60.3791 41.8251 60.4349 41.7894 60.4884 41.7514C60.5509 41.709 60.6134 41.6476 60.6748 41.6052C60.7373 41.5628 60.7998 41.5226 60.8824 41.4802C60.9449 41.4378 61.0074 41.3976 61.09 41.3552C61.9773 40.8418 62.9884 40.5673 64.0243 40.565L64.0075 40.5696ZM48.3992 44.8588L48.4003 44.8599C47.551 44.8722 46.8735 45.5709 46.8869 46.4191V48.4391C46.8813 48.8498 47.0409 49.2449 47.33 49.5374C47.6191 49.8298 48.0119 49.9939 48.4226 49.9939C48.8333 49.9939 49.2273 49.8298 49.5153 49.5374C49.8043 49.245 49.9639 48.8499 49.9595 48.4391V46.4191C49.965 46.0028 49.8032 45.6032 49.5086 45.3086C49.214 45.0151 48.8133 44.8532 48.3981 44.8599L48.3992 44.8588ZM79.5678 44.8588L79.5689 44.8599C78.7207 44.8722 78.0432 45.5709 78.0555 46.4191V48.4391C78.0454 48.8532 78.2028 49.2539 78.4919 49.5496C78.7809 49.8454 79.1771 50.0128 79.5912 50.0128C80.0053 50.0128 80.4015 49.8454 80.6906 49.5496C80.9796 49.2539 81.137 48.8532 81.1269 48.4391V46.4191C81.1336 46.0039 80.9718 45.6032 80.6772 45.3097C80.3836 45.0162 79.9841 44.8532 79.5689 44.8599L79.5678 44.8588ZM43.2792 69.1691H84.7335V72.9939C84.7335 84.5074 75.5158 93.7282 64.0069 93.7282C52.4981 93.7282 43.2792 84.5074 43.2792 72.9939V69.1691ZM35.2378 100.729H37.2378V135.061C36.1585 134.171 35.0726 133.234 33.9832 132.25C33.9006 132.168 33.8169 132.104 33.7332 132.024C33.6294 131.941 33.5468 131.857 33.4497 131.764C29.7309 128.344 26.0089 124.373 22.4989 119.783V113.469C22.4989 112.23 22.6652 111.035 22.9955 109.905L22.9977 109.906C23.2165 109.626 23.3326 109.279 23.3236 108.923C25.1384 104.111 29.7611 100.729 35.2376 100.729L35.2378 100.729ZM40.3103 100.729H46.1429V120.949C46.1429 121.053 46.1373 121.164 46.1251 121.272C45.9789 122.804 44.8193 123.932 43.3739 124.006C43.3315 124.009 43.2701 124.01 43.2277 124.01C42.9242 124.01 42.6329 123.968 42.3583 123.885C41.1697 123.512 40.3103 122.379 40.3103 120.958L40.3103 100.729ZM49.2166 100.729H55.6172C57.2723 102.995 59.7243 104.537 62.4698 104.963V108.805C62.4653 109.216 62.6249 109.611 62.914 109.902C63.2019 110.194 63.5959 110.358 64.0066 110.358C64.4173 110.358 64.8102 110.194 65.0992 109.902C65.3872 109.611 65.5479 109.216 65.5423 108.805V104.965C68.2879 104.538 70.7389 102.996 72.3937 100.73H78.9718V117.033H49.2175L49.2166 100.729ZM82.0452 100.729H87.8778V120.949C87.8778 121.211 87.8532 121.465 87.7952 121.704V121.705C87.7796 121.739 87.7662 121.774 87.7528 121.81C87.4391 122.938 86.5597 123.768 85.4548 123.961C85.4492 123.962 85.4425 123.965 85.4369 123.965C85.3744 123.977 85.2907 123.989 85.2182 123.989C85.2059 123.99 85.1936 123.99 85.1758 123.991C85.0932 123.997 85.0296 124.004 84.9514 124.004C84.4961 124.004 84.0675 123.9 83.6858 123.712C82.7092 123.233 82.0351 122.201 82.0351 120.943V118.562L82.0452 100.729ZM90.9515 100.729H92.7763C98.254 100.729 102.876 104.113 104.69 108.923V108.924C104.681 109.281 104.797 109.628 105.016 109.908C105.339 111.036 105.513 112.231 105.513 113.471V119.785C102.013 124.362 98.3008 128.324 94.5919 131.738C94.4669 131.842 94.3565 131.954 94.2404 132.061C94.1779 132.103 94.1366 132.165 94.0752 132.207C92.9692 133.205 91.8676 134.157 90.7726 135.061V122.418C90.8976 121.946 90.9389 121.456 90.9389 120.95L90.9515 100.729ZM49.2172 120.104H78.9715V120.95C78.9715 121.892 79.1835 122.788 79.5597 123.592C79.6423 123.778 79.726 123.943 79.8364 124.114C79.8789 124.197 79.9402 124.28 79.9827 124.364C80.0072 124.406 80.0251 124.426 80.0452 124.468C80.1277 124.593 80.2315 124.722 80.3219 124.842C80.3844 124.924 80.4469 124.988 80.5083 125.064C80.5708 125.146 80.6333 125.21 80.7159 125.278C80.7784 125.341 80.8621 125.424 80.9235 125.486C80.986 125.548 81.0697 125.611 81.1389 125.672C81.2215 125.735 81.2851 125.797 81.3655 125.858C81.6735 126.095 82.0039 126.303 82.3532 126.478C83.1389 126.868 84.0206 127.089 84.9548 127.089C85.0373 127.089 85.101 127.086 85.1757 127.084C86.082 127.041 86.9369 126.807 87.6958 126.404V137.467C79.717 143.515 72.5284 147.112 68.187 148.98C68.0006 149.063 67.8186 149.146 67.6468 149.211C67.6457 149.211 67.6457 149.211 67.6434 149.212C65.5899 150.068 64.2817 150.501 64.0006 150.591C63.7205 150.508 62.4191 150.072 60.3734 149.219C60.2909 149.177 60.1871 149.136 60.1078 149.115C60.004 149.073 59.9002 149.033 59.802 148.99C55.4594 147.12 48.2752 143.525 40.3043 137.481V126.322C41.1045 126.783 42.0197 127.062 42.9929 127.1C43.0755 127.104 43.1391 127.105 43.2195 127.105C43.9449 127.105 44.6391 126.98 45.2842 126.729C45.4706 126.666 45.6481 126.583 45.8222 126.493C46.0845 126.368 46.3356 126.213 46.5744 126.047C46.8925 125.825 47.1893 125.574 47.4595 125.293C47.522 125.23 47.5845 125.146 47.6671 125.078C47.7296 124.996 47.7921 124.932 47.8534 124.856C47.9159 124.774 47.9784 124.71 48.0398 124.623C48.1648 124.456 48.2619 124.303 48.3624 124.133C48.4048 124.05 48.4662 123.967 48.5086 123.877C48.9673 123.008 49.2295 122.019 49.2295 120.972L49.2172 120.104ZM73.3466 126.517V126.518C72.9482 126.523 72.5665 126.684 72.2841 126.965L61.3378 137.558L55.7307 132.132H55.7318C55.4405 131.839 55.0443 131.678 54.6313 131.68C54.2195 131.683 53.8256 131.852 53.5387 132.148C53.2519 132.445 53.0967 132.844 53.1068 133.257C53.118 133.669 53.2943 134.059 53.5956 134.34L60.2696 140.799C60.8656 141.376 61.8109 141.376 62.4069 140.799L74.4215 129.173H74.4204C74.8824 128.739 75.0297 128.066 74.7931 127.479C74.5554 126.891 73.9818 126.509 73.3478 126.518L73.3466 126.517Z" fill="#343345"/>
</svg>
